<svg width="893" height="478" viewBox="0 0 893 478" fill="none" xmlns="http://www.w3.org/2000/svg">
<rect width="123.286" height="64" rx="12" fill="#D2F0FF"/>
<path d="M45.96 39H44.06V25H59.4V39H57.5V26.76H45.96V39ZM65.4131 39H63.5131V25H65.4131V30.94H77.2531V25H79.1531V39H77.2531V32.74H65.4131V39Z" fill="#212121"/>
<rect x="128.285" width="123.286" height="64" rx="12" fill="#D2F0FF"/>
<path d="M172.345 39V25H183.605C184.778 25 185.685 25.2933 186.325 25.88C186.965 26.4533 187.285 27.2267 187.285 28.2V29C187.285 29.7867 187.112 30.3933 186.765 30.82C186.418 31.2467 186.012 31.5133 185.545 31.62V31.72C186.065 31.8 186.532 32.0733 186.945 32.54C187.372 33.0067 187.585 33.66 187.585 34.5V35.8C187.585 36.7733 187.258 37.5533 186.605 38.14C185.965 38.7133 185.058 39 183.885 39H172.345ZM183.325 30.9C184.712 30.9 185.405 30.3133 185.405 29.14V28.52C185.405 27.3467 184.712 26.76 183.325 26.76H174.245V30.9H183.325ZM183.605 37.24C184.992 37.24 185.685 36.6533 185.685 35.48V34.42C185.685 33.2467 184.992 32.66 183.605 32.66H174.245V37.24H183.605ZM198.062 39H196.162V26.76H189.262V25H204.962V26.14L204.342 26.76H198.062V39Z" fill="#212121"/>
<rect x="256.57" width="123.286" height="64" rx="12" fill="#D2F0FF"/>
<path d="M303.97 39C302.797 39 301.884 38.7133 301.23 38.14C300.59 37.5533 300.27 36.7733 300.27 35.8V28.2C300.27 27.2267 300.59 26.4533 301.23 25.88C301.884 25.2933 302.797 25 303.97 25H314.77V26.16L314.17 26.76H304.25C302.864 26.76 302.17 27.3467 302.17 28.52V35.48C302.17 36.6533 302.864 37.24 304.25 37.24H314.77V39H303.97ZM317.896 39V25H329.456C330.629 25 331.536 25.2933 332.176 25.88C332.816 26.4533 333.136 27.2267 333.136 28.2V31.18C333.136 32.1533 332.816 32.9333 332.176 33.52C331.536 34.0933 330.629 34.38 329.456 34.38H319.796V39H317.896ZM329.176 32.62C330.563 32.62 331.256 32.0333 331.256 30.86V28.52C331.256 27.3467 330.563 26.76 329.176 26.76H319.796V32.62H329.176Z" fill="#212121"/>
<rect x="384.855" width="123.286" height="64" rx="12" fill="#D2F0FF"/>
<path d="M441.715 39V34H432.155C430.982 34 430.075 33.7133 429.435 33.14C428.795 32.5533 428.475 31.7733 428.475 30.8V25H430.355V30.48C430.355 31.6533 431.055 32.24 432.455 32.24H441.715V25H443.615V39H441.715ZM454.984 39H453.084V26.76H446.184V25H461.884V26.14L461.264 26.76H454.984V39Z" fill="#212121"/>
<rect x="513.145" width="123.286" height="64" rx="12" fill="#D2F0FF"/>
<path d="M559.105 39H557.205V25H572.545V39H570.645V26.76H559.105V39ZM583.898 39H581.998V26.76H575.098V25H590.798V26.14L590.178 26.76H583.898V39Z" fill="#212121"/>
<rect x="641.43" width="123.286" height="64" rx="12" fill="#D2F0FF"/>
<path d="M688.83 39C687.656 39 686.743 38.7133 686.09 38.14C685.45 37.5533 685.13 36.7733 685.13 35.8V28.2C685.13 27.2267 685.45 26.4533 686.09 25.88C686.743 25.2933 687.656 25 688.83 25H699.63V26.16L699.03 26.76H689.11C687.723 26.76 687.03 27.3467 687.03 28.52V35.48C687.03 36.6533 687.723 37.24 689.11 37.24H699.63V39H688.83ZM702.755 39V25H716.955V26.16L716.375 26.76H704.655V30.6H714.295C715.469 30.6 716.375 30.8933 717.015 31.48C717.669 32.0533 717.995 32.8267 717.995 33.8V35.8C717.995 36.7733 717.669 37.5533 717.015 38.14C716.375 38.7133 715.469 39 714.295 39H702.755ZM714.015 37.24C715.402 37.24 716.095 36.6533 716.095 35.48V34.14C716.095 32.9533 715.402 32.36 714.015 32.36H704.655V37.24H714.015Z" fill="#212121"/>
<rect x="769.715" width="123.286" height="64" rx="12" fill="#D2F0FF"/>
<path d="M813.775 39V25H825.035C826.208 25 827.115 25.2933 827.755 25.88C828.395 26.4533 828.715 27.2267 828.715 28.2V29C828.715 29.7867 828.542 30.3933 828.195 30.82C827.848 31.2467 827.442 31.5133 826.975 31.62V31.72C827.495 31.8 827.962 32.0733 828.375 32.54C828.802 33.0067 829.015 33.66 829.015 34.5V35.8C829.015 36.7733 828.688 37.5533 828.035 38.14C827.395 38.7133 826.488 39 825.315 39H813.775ZM824.755 30.9C826.142 30.9 826.835 30.3133 826.835 29.14V28.52C826.835 27.3467 826.142 26.76 824.755 26.76H815.675V30.9H824.755ZM825.035 37.24C826.422 37.24 827.115 36.6533 827.115 35.48V34.42C827.115 33.2467 826.422 32.66 825.035 32.66H815.675V37.24H825.035ZM835.884 39C834.711 39 833.798 38.7133 833.144 38.14C832.504 37.5533 832.184 36.7733 832.184 35.8V28.2C832.184 27.2267 832.504 26.4533 833.144 25.88C833.798 25.2933 834.711 25 835.884 25H846.684V26.16L846.084 26.76H836.164C834.778 26.76 834.084 27.3467 834.084 28.52V35.48C834.084 36.6533 834.778 37.24 836.164 37.24H846.684V39H835.884Z" fill="#212121"/>
<rect x="0.5" y="69.5" width="122" height="63" rx="11.5" stroke="#F4F4F4"/>
<path d="M13.2 116V114.7H22.6C23.36 114.7 23.9467 114.533 24.36 114.2C24.7867 113.853 25 113.353 25 112.7V111.4C25 110.747 24.7867 110.253 24.36 109.92C23.9467 109.573 23.36 109.4 22.6 109.4H16.72V108.2L23.46 103.4V103.3H13.6L13.2 102.9V102H25.8V103.2L19.06 108V108.1H22.7C23.7933 108.1 24.6667 108.393 25.32 108.98C25.9733 109.553 26.3 110.327 26.3 111.3V112.8C26.3 113.773 25.9733 114.553 25.32 115.14C24.6667 115.713 23.7933 116 22.7 116H13.2ZM33.2008 116.2C32.1074 116.2 31.2341 115.913 30.5808 115.34C29.9274 114.753 29.6008 113.973 29.6008 113V105C29.6008 104.027 29.9274 103.253 30.5808 102.68C31.2341 102.093 32.1074 101.8 33.2008 101.8H39.8008C40.8941 101.8 41.7674 102.093 42.4208 102.68C43.0741 103.253 43.4008 104.027 43.4008 105V113C43.4008 113.973 43.0741 114.753 42.4208 115.34C41.7674 115.913 40.8941 116.2 39.8008 116.2H33.2008ZM39.7008 114.9C40.4608 114.9 41.0474 114.733 41.4608 114.4C41.8874 114.053 42.1008 113.553 42.1008 112.9V105.1C42.1008 104.447 41.8874 103.953 41.4608 103.62C41.0474 103.273 40.4608 103.1 39.7008 103.1H33.3008C32.5408 103.1 31.9474 103.273 31.5208 103.62C31.1074 103.953 30.9008 104.447 30.9008 105.1V112.9C30.9008 113.553 31.1074 114.053 31.5208 114.4C31.9474 114.733 32.5408 114.9 33.3008 114.9H39.7008Z" fill="#CCCCCC"/>
<circle cx="105" cy="87" r="8" fill="#EE5B5B"/>
<rect x="128.5" y="69.5" width="122.333" height="63" rx="11.5" stroke="#F4F4F4"/>
<path d="M145.4 116.2C144.227 116.2 143.313 115.913 142.66 115.34C142.02 114.753 141.7 113.973 141.7 113V105C141.7 104.027 142.02 103.253 142.66 102.68C143.313 102.093 144.227 101.8 145.4 101.8H152.36C153.533 101.8 154.44 102.093 155.08 102.68C155.733 103.253 156.06 104.027 156.06 105V113C156.06 113.973 155.733 114.753 155.08 115.34C154.44 115.913 153.533 116.2 152.36 116.2H145.4ZM152.08 114.44C153.467 114.44 154.16 113.853 154.16 112.68V105.32C154.16 104.147 153.467 103.56 152.08 103.56H145.68C144.293 103.56 143.6 104.147 143.6 105.32V112.68C143.6 113.853 144.293 114.44 145.68 114.44H152.08ZM169.774 116H159.314V114.24H163.594V105.02H159.434V103.3H163.594V101.94H165.494V114.24H169.774V116Z" fill="#212121"/>
<rect x="256.832" y="69.5" width="122.333" height="63" rx="11.5" stroke="#F4F4F4"/>
<path d="M273.732 116.2C272.559 116.2 271.645 115.913 270.992 115.34C270.352 114.753 270.032 113.973 270.032 113V105C270.032 104.027 270.352 103.253 270.992 102.68C271.645 102.093 272.559 101.8 273.732 101.8H280.692C281.865 101.8 282.772 102.093 283.412 102.68C284.065 103.253 284.392 104.027 284.392 105V113C284.392 113.973 284.065 114.753 283.412 115.34C282.772 115.913 281.865 116.2 280.692 116.2H273.732ZM280.412 114.44C281.799 114.44 282.492 113.853 282.492 112.68V105.32C282.492 104.147 281.799 103.56 280.412 103.56H274.012C272.625 103.56 271.932 104.147 271.932 105.32V112.68C271.932 113.853 272.625 114.44 274.012 114.44H280.412ZM286.583 116V114.34L296.083 108.98C296.816 108.567 297.343 108.187 297.663 107.84C297.983 107.493 298.143 107.04 298.143 106.48V105.52C298.143 104.347 297.449 103.76 296.063 103.76H287.423L286.843 103.16V102H296.343C297.516 102 298.423 102.293 299.063 102.88C299.716 103.453 300.043 104.227 300.043 105.2V106.74C300.043 107.447 299.816 108.08 299.363 108.64C298.923 109.2 298.209 109.76 297.223 110.32L290.483 114.14V114.24H300.043V116H286.583Z" fill="#212121"/>
<circle cx="361.332" cy="87" r="8" fill="#EE5B5B"/>
<rect x="385.168" y="69.5" width="122.333" height="63" rx="11.5" stroke="#F4F4F4"/>
<path d="M402.068 116.2C400.895 116.2 399.981 115.913 399.328 115.34C398.688 114.753 398.368 113.973 398.368 113V105C398.368 104.027 398.688 103.253 399.328 102.68C399.981 102.093 400.895 101.8 402.068 101.8H409.028C410.201 101.8 411.108 102.093 411.748 102.68C412.401 103.253 412.728 104.027 412.728 105V113C412.728 113.973 412.401 114.753 411.748 115.34C411.108 115.913 410.201 116.2 409.028 116.2H402.068ZM408.748 114.44C410.135 114.44 410.828 113.853 410.828 112.68V105.32C410.828 104.147 410.135 103.56 408.748 103.56H402.348C400.961 103.56 400.268 104.147 400.268 105.32V112.68C400.268 113.853 400.961 114.44 402.348 114.44H408.748ZM414.879 116V114.24H424.459C425.845 114.24 426.539 113.653 426.539 112.48V111.48C426.539 110.893 426.365 110.453 426.019 110.16C425.672 109.853 425.152 109.7 424.459 109.7H418.379V108.1L424.579 103.86V103.76H415.459L414.879 103.16V102H427.859V103.6L421.579 107.9V108H424.739C425.912 108 426.819 108.293 427.459 108.88C428.099 109.453 428.419 110.227 428.419 111.2V112.8C428.419 113.773 428.099 114.553 427.459 115.14C426.819 115.713 425.912 116 424.739 116H414.879Z" fill="#212121"/>
<circle cx="489.668" cy="87" r="8" fill="#437DE9"/>
<rect x="513.5" y="69.5" width="122.333" height="63" rx="11.5" stroke="#F4F4F4"/>
<path d="M530.4 116.2C529.227 116.2 528.313 115.913 527.66 115.34C527.02 114.753 526.7 113.973 526.7 113V105C526.7 104.027 527.02 103.253 527.66 102.68C528.313 102.093 529.227 101.8 530.4 101.8H537.36C538.533 101.8 539.44 102.093 540.08 102.68C540.733 103.253 541.06 104.027 541.06 105V113C541.06 113.973 540.733 114.753 540.08 115.34C539.44 115.913 538.533 116.2 537.36 116.2H530.4ZM537.08 114.44C538.467 114.44 539.16 113.853 539.16 112.68V105.32C539.16 104.147 538.467 103.56 537.08 103.56H530.68C529.293 103.56 528.6 104.147 528.6 105.32V112.68C528.6 113.853 529.293 114.44 530.68 114.44H537.08ZM556.354 116H554.454V112.78H543.454V111.08L550.474 102H552.114V102.88L545.854 110.92V111.02H554.454V106.82H556.354V111.02H559.354V112.78H556.354V116Z" fill="#212121"/>
<circle cx="618" cy="87" r="8" fill="#FFD17D"/>
<rect x="641.832" y="69.5" width="122.333" height="63" rx="11.5" stroke="#F4F4F4"/>
<path d="M658.732 116.2C657.559 116.2 656.645 115.913 655.992 115.34C655.352 114.753 655.032 113.973 655.032 113V105C655.032 104.027 655.352 103.253 655.992 102.68C656.645 102.093 657.559 101.8 658.732 101.8H665.692C666.865 101.8 667.772 102.093 668.412 102.68C669.065 103.253 669.392 104.027 669.392 105V113C669.392 113.973 669.065 114.753 668.412 115.34C667.772 115.913 666.865 116.2 665.692 116.2H658.732ZM665.412 114.44C666.799 114.44 667.492 113.853 667.492 112.68V105.32C667.492 104.147 666.799 103.56 665.412 103.56H659.012C657.625 103.56 656.932 104.147 656.932 105.32V112.68C656.932 113.853 657.625 114.44 659.012 114.44H665.412ZM672.646 116V114.24H682.126C683.513 114.24 684.206 113.653 684.206 112.48V110.94C684.206 110.353 684.033 109.913 683.686 109.62C683.339 109.313 682.819 109.16 682.126 109.16H672.786V102H685.546V103.16L684.966 103.76H674.686V107.4H682.406C683.579 107.4 684.486 107.693 685.126 108.28C685.766 108.853 686.086 109.627 686.086 110.6V112.8C686.086 113.773 685.766 114.553 685.126 115.14C684.486 115.713 683.579 116 682.406 116H672.646Z" fill="#212121"/>
<circle cx="746.332" cy="87" r="8" fill="#FFD17D"/>
<rect x="770.168" y="69.5" width="122.333" height="63" rx="11.5" stroke="#F4F4F4"/>
<path d="M787.068 116.2C785.895 116.2 784.981 115.913 784.328 115.34C783.688 114.753 783.368 113.973 783.368 113V105C783.368 104.027 783.688 103.253 784.328 102.68C784.981 102.093 785.895 101.8 787.068 101.8H794.028C795.201 101.8 796.108 102.093 796.748 102.68C797.401 103.253 797.728 104.027 797.728 105V113C797.728 113.973 797.401 114.753 796.748 115.34C796.108 115.913 795.201 116.2 794.028 116.2H787.068ZM793.748 114.44C795.135 114.44 795.828 113.853 795.828 112.68V105.32C795.828 104.147 795.135 103.56 793.748 103.56H787.348C785.961 103.56 785.268 104.147 785.268 105.32V112.68C785.268 113.853 785.961 114.44 787.348 114.44H793.748ZM804.362 116.2C803.189 116.2 802.282 115.913 801.642 115.34C801.002 114.753 800.682 113.973 800.682 113V110.7C800.682 110.033 800.849 109.453 801.182 108.96C801.515 108.467 802.069 107.927 802.842 107.34L809.922 102H811.522V103L805.462 107.5V107.6H806.922H811.442C812.615 107.6 813.522 107.893 814.162 108.48C814.802 109.053 815.122 109.827 815.122 110.8V113C815.122 113.973 814.802 114.753 814.162 115.34C813.522 115.913 812.615 116.2 811.442 116.2H804.362ZM811.162 114.44C812.549 114.44 813.242 113.853 813.242 112.68V111.14C813.242 110.553 813.069 110.113 812.722 109.82C812.375 109.513 811.855 109.36 811.162 109.36H804.642C803.949 109.36 803.429 109.513 803.082 109.82C802.735 110.113 802.562 110.553 802.562 111.14V112.68C802.562 113.853 803.255 114.44 804.642 114.44H811.162Z" fill="#212121"/>
<rect x="0.5" y="138.5" width="122" height="63" rx="11.5" stroke="#F4F4F4"/>
<path d="M17.4 185.2C16.2267 185.2 15.3133 184.913 14.66 184.34C14.02 183.753 13.7 182.973 13.7 182V174C13.7 173.027 14.02 172.253 14.66 171.68C15.3133 171.093 16.2267 170.8 17.4 170.8H24.36C25.5333 170.8 26.44 171.093 27.08 171.68C27.7333 172.253 28.06 173.027 28.06 174V182C28.06 182.973 27.7333 183.753 27.08 184.34C26.44 184.913 25.5333 185.2 24.36 185.2H17.4ZM24.08 183.44C25.4667 183.44 26.16 182.853 26.16 181.68V174.32C26.16 173.147 25.4667 172.56 24.08 172.56H17.68C16.2933 172.56 15.6 173.147 15.6 174.32V181.68C15.6 182.853 16.2933 183.44 17.68 183.44H24.08ZM35.2308 185H33.5308V183.98L40.7908 172.9V172.8H29.6508V171H43.1508V172.7L35.2308 185Z" fill="#212121"/>
<circle cx="105" cy="156" r="8" fill="#EE5B5B"/>
<rect x="128.5" y="138.5" width="122.333" height="63" rx="11.5" stroke="#F4F4F4"/>
<path d="M145.4 185.2C144.227 185.2 143.313 184.913 142.66 184.34C142.02 183.753 141.7 182.973 141.7 182V174C141.7 173.027 142.02 172.253 142.66 171.68C143.313 171.093 144.227 170.8 145.4 170.8H152.36C153.533 170.8 154.44 171.093 155.08 171.68C155.733 172.253 156.06 173.027 156.06 174V182C156.06 182.973 155.733 183.753 155.08 184.34C154.44 184.913 153.533 185.2 152.36 185.2H145.4ZM152.08 183.44C153.467 183.44 154.16 182.853 154.16 181.68V174.32C154.16 173.147 153.467 172.56 152.08 172.56H145.68C144.293 172.56 143.6 173.147 143.6 174.32V181.68C143.6 182.853 144.293 183.44 145.68 183.44H152.08ZM162.854 185.2C161.681 185.2 160.767 184.913 160.114 184.34C159.474 183.753 159.154 182.973 159.154 182V180.54C159.154 179.727 159.367 179.08 159.794 178.6C160.234 178.107 160.734 177.813 161.294 177.72V177.62C160.814 177.5 160.414 177.227 160.094 176.8C159.787 176.36 159.634 175.78 159.634 175.06V174C159.634 173.027 159.954 172.253 160.594 171.68C161.247 171.093 162.161 170.8 163.334 170.8H169.694C170.867 170.8 171.774 171.093 172.414 171.68C173.067 172.253 173.394 173.027 173.394 174V175.06C173.394 175.78 173.234 176.36 172.914 176.8C172.607 177.227 172.214 177.5 171.734 177.62V177.72C172.281 177.813 172.767 178.107 173.194 178.6C173.634 179.08 173.854 179.727 173.854 180.54V182C173.854 182.973 173.534 183.753 172.894 184.34C172.254 184.913 171.347 185.2 170.174 185.2H162.854ZM169.414 176.92C170.801 176.92 171.494 176.327 171.494 175.14V174.32C171.494 173.147 170.801 172.56 169.414 172.56H163.614C162.227 172.56 161.534 173.147 161.534 174.32V175.14C161.534 176.327 162.227 176.92 163.614 176.92H169.414ZM169.894 183.44C171.281 183.44 171.974 182.853 171.974 181.68V180.4C171.974 179.813 171.801 179.373 171.454 179.08C171.107 178.773 170.587 178.62 169.894 178.62H163.134C162.441 178.62 161.921 178.773 161.574 179.08C161.227 179.373 161.054 179.813 161.054 180.4V181.68C161.054 182.853 161.747 183.44 163.134 183.44H169.894Z" fill="#212121"/>
<rect x="256.832" y="138.5" width="122.333" height="63" rx="11.5" stroke="#F4F4F4"/>
<path d="M273.732 185.2C272.559 185.2 271.645 184.913 270.992 184.34C270.352 183.753 270.032 182.973 270.032 182V174C270.032 173.027 270.352 172.253 270.992 171.68C271.645 171.093 272.559 170.8 273.732 170.8H280.692C281.865 170.8 282.772 171.093 283.412 171.68C284.065 172.253 284.392 173.027 284.392 174V182C284.392 182.973 284.065 183.753 283.412 184.34C282.772 184.913 281.865 185.2 280.692 185.2H273.732ZM280.412 183.44C281.799 183.44 282.492 182.853 282.492 181.68V174.32C282.492 173.147 281.799 172.56 280.412 172.56H274.012C272.625 172.56 271.932 173.147 271.932 174.32V181.68C271.932 182.853 272.625 183.44 274.012 183.44H280.412ZM290.946 185V184L297.006 179.5V179.4H295.546H291.026C289.853 179.4 288.946 179.113 288.306 178.54C287.666 177.953 287.346 177.173 287.346 176.2V174C287.346 173.027 287.666 172.253 288.306 171.68C288.946 171.093 289.853 170.8 291.026 170.8H298.106C299.279 170.8 300.186 171.093 300.826 171.68C301.466 172.253 301.786 173.027 301.786 174V176.3C301.786 176.967 301.619 177.547 301.286 178.04C300.953 178.533 300.399 179.073 299.626 179.66L292.566 185H290.946ZM297.826 177.64C298.519 177.64 299.039 177.493 299.386 177.2C299.733 176.893 299.906 176.447 299.906 175.86V174.32C299.906 173.147 299.213 172.56 297.826 172.56H291.306C289.919 172.56 289.226 173.147 289.226 174.32V175.86C289.226 176.447 289.399 176.893 289.746 177.2C290.093 177.493 290.613 177.64 291.306 177.64H297.826Z" fill="#212121"/>
<circle cx="361.332" cy="156" r="8" fill="#EE5B5B"/>
<rect x="385.168" y="138.5" width="122.333" height="63" rx="11.5" stroke="#F4F4F4"/>
<path d="M408.688 185H398.228V183.24H402.508V174.02H398.348V172.3H402.508V170.94H404.408V183.24H408.688V185ZM414.295 185.2C413.121 185.2 412.208 184.913 411.555 184.34C410.915 183.753 410.595 182.973 410.595 182V174C410.595 173.027 410.915 172.253 411.555 171.68C412.208 171.093 413.121 170.8 414.295 170.8H421.255C422.428 170.8 423.335 171.093 423.975 171.68C424.628 172.253 424.955 173.027 424.955 174V182C424.955 182.973 424.628 183.753 423.975 184.34C423.335 184.913 422.428 185.2 421.255 185.2H414.295ZM420.975 183.44C422.361 183.44 423.055 182.853 423.055 181.68V174.32C423.055 173.147 422.361 172.56 420.975 172.56H414.575C413.188 172.56 412.495 173.147 412.495 174.32V181.68C412.495 182.853 413.188 183.44 414.575 183.44H420.975Z" fill="#212121"/>
<circle cx="489.668" cy="156" r="8" fill="#437DE9"/>
<rect x="513.5" y="138.5" width="122.333" height="63" rx="11.5" stroke="#F4F4F4"/>
<path d="M537.02 185H526.56V183.24H530.84V174.02H526.68V172.3H530.84V170.94H532.74V183.24H537.02V185ZM549.95 185H539.49V183.24H543.77V174.02H539.61V172.3H543.77V170.94H545.67V183.24H549.95V185Z" fill="#212121"/>
<circle cx="618" cy="156" r="8" fill="#FFD17D"/>
<rect x="641.832" y="138.5" width="122.333" height="63" rx="11.5" stroke="#F4F4F4"/>
<path d="M665.352 185H654.892V183.24H659.172V174.02H655.012V172.3H659.172V170.94H661.072V183.24H665.352V185ZM667.462 185V183.34L676.962 177.98C677.695 177.567 678.222 177.187 678.542 176.84C678.862 176.493 679.022 176.04 679.022 175.48V174.52C679.022 173.347 678.328 172.76 676.942 172.76H668.302L667.722 172.16V171H677.222C678.395 171 679.302 171.293 679.942 171.88C680.595 172.453 680.922 173.227 680.922 174.2V175.74C680.922 176.447 680.695 177.08 680.242 177.64C679.802 178.2 679.088 178.76 678.102 179.32L671.362 183.14V183.24H680.922V185H667.462Z" fill="#212121"/>
<circle cx="746.332" cy="156" r="8" fill="#FFD17D"/>
<rect x="770.168" y="138.5" width="122.333" height="63" rx="11.5" stroke="#F4F4F4"/>
<path d="M793.688 185H783.228V183.24H787.508V174.02H783.348V172.3H787.508V170.94H789.408V183.24H793.688V185ZM795.758 185V183.24H805.338C806.724 183.24 807.418 182.653 807.418 181.48V180.48C807.418 179.893 807.244 179.453 806.898 179.16C806.551 178.853 806.031 178.7 805.338 178.7H799.258V177.1L805.458 172.86V172.76H796.338L795.758 172.16V171H808.738V172.6L802.458 176.9V177H805.618C806.791 177 807.698 177.293 808.338 177.88C808.978 178.453 809.298 179.227 809.298 180.2V181.8C809.298 182.773 808.978 183.553 808.338 184.14C807.698 184.713 806.791 185 805.618 185H795.758Z" fill="#212121"/>
<rect x="0.5" y="207.5" width="122" height="63" rx="11.5" stroke="#F4F4F4"/>
<path d="M24.02 254H13.56V252.24H17.84V243.02H13.68V241.3H17.84V239.94H19.74V252.24H24.02V254ZM37.8266 254H35.9266V250.78H24.9266V249.08L31.9466 240H33.5866V240.88L27.3266 248.92V249.02H35.9266V244.82H37.8266V249.02H40.8266V250.78H37.8266V254Z" fill="#212121"/>
<circle cx="105" cy="225" r="8" fill="#EE5B5B"/>
<rect x="128.5" y="207.5" width="122.333" height="63" rx="11.5" stroke="#F4F4F4"/>
<path d="M152.02 254H141.56V252.24H145.84V243.02H141.68V241.3H145.84V239.94H147.74V252.24H152.02V254ZM154.197 254V252.24H163.677C165.063 252.24 165.757 251.653 165.757 250.48V248.94C165.757 248.353 165.583 247.913 165.237 247.62C164.89 247.313 164.37 247.16 163.677 247.16H154.337V240H167.097V241.16L166.517 241.76H156.237V245.4H163.957C165.13 245.4 166.037 245.693 166.677 246.28C167.317 246.853 167.637 247.627 167.637 248.6V250.8C167.637 251.773 167.317 252.553 166.677 253.14C166.037 253.713 165.13 254 163.957 254H154.197Z" fill="#212121"/>
<rect x="256.832" y="207.5" width="122.333" height="63" rx="11.5" stroke="#F4F4F4"/>
<path d="M280.352 254H269.892V252.24H274.172V243.02H270.012V241.3H274.172V239.94H276.072V252.24H280.352V254ZM285.909 254.2C284.735 254.2 283.829 253.913 283.189 253.34C282.549 252.753 282.229 251.973 282.229 251V248.7C282.229 248.033 282.395 247.453 282.729 246.96C283.062 246.467 283.615 245.927 284.389 245.34L291.469 240H293.069V241L287.009 245.5V245.6H288.469H292.989C294.162 245.6 295.069 245.893 295.709 246.48C296.349 247.053 296.669 247.827 296.669 248.8V251C296.669 251.973 296.349 252.753 295.709 253.34C295.069 253.913 294.162 254.2 292.989 254.2H285.909ZM292.709 252.44C294.095 252.44 294.789 251.853 294.789 250.68V249.14C294.789 248.553 294.615 248.113 294.269 247.82C293.922 247.513 293.402 247.36 292.709 247.36H286.189C285.495 247.36 284.975 247.513 284.629 247.82C284.282 248.113 284.109 248.553 284.109 249.14V250.68C284.109 251.853 284.802 252.44 286.189 252.44H292.709Z" fill="#212121"/>
<circle cx="361.332" cy="225" r="8" fill="#EE5B5B"/>
<rect x="385.168" y="207.5" width="122.333" height="63" rx="11.5" stroke="#F4F4F4"/>
<path d="M408.688 254H398.228V252.24H402.508V243.02H398.348V241.3H402.508V239.94H404.408V252.24H408.688V254ZM415.075 254H413.375V252.98L420.635 241.9V241.8H409.495V240H422.995V241.7L415.075 254Z" fill="#212121"/>
<circle cx="489.668" cy="225" r="8" fill="#437DE9"/>
<rect x="513.5" y="207.5" width="122.333" height="63" rx="11.5" stroke="#F4F4F4"/>
<path d="M537.02 254H526.56V252.24H530.84V243.02H526.68V241.3H530.84V239.94H532.74V252.24H537.02V254ZM542.737 254.2C541.563 254.2 540.65 253.913 539.997 253.34C539.357 252.753 539.037 251.973 539.037 251V249.54C539.037 248.727 539.25 248.08 539.677 247.6C540.117 247.107 540.617 246.813 541.177 246.72V246.62C540.697 246.5 540.297 246.227 539.977 245.8C539.67 245.36 539.517 244.78 539.517 244.06V243C539.517 242.027 539.837 241.253 540.477 240.68C541.13 240.093 542.043 239.8 543.217 239.8H549.577C550.75 239.8 551.657 240.093 552.297 240.68C552.95 241.253 553.277 242.027 553.277 243V244.06C553.277 244.78 553.117 245.36 552.797 245.8C552.49 246.227 552.097 246.5 551.617 246.62V246.72C552.163 246.813 552.65 247.107 553.077 247.6C553.517 248.08 553.737 248.727 553.737 249.54V251C553.737 251.973 553.417 252.753 552.777 253.34C552.137 253.913 551.23 254.2 550.057 254.2H542.737ZM549.297 245.92C550.683 245.92 551.377 245.327 551.377 244.14V243.32C551.377 242.147 550.683 241.56 549.297 241.56H543.497C542.11 241.56 541.417 242.147 541.417 243.32V244.14C541.417 245.327 542.11 245.92 543.497 245.92H549.297ZM549.777 252.44C551.163 252.44 551.857 251.853 551.857 250.68V249.4C551.857 248.813 551.683 248.373 551.337 248.08C550.99 247.773 550.47 247.62 549.777 247.62H543.017C542.323 247.62 541.803 247.773 541.457 248.08C541.11 248.373 540.937 248.813 540.937 249.4V250.68C540.937 251.853 541.63 252.44 543.017 252.44H549.777Z" fill="#212121"/>
<circle cx="618" cy="225" r="8" fill="#FFD17D"/>
<rect x="641.832" y="207.5" width="122.333" height="63" rx="11.5" stroke="#F4F4F4"/>
<path d="M665.352 254H654.892V252.24H659.172V243.02H655.012V241.3H659.172V239.94H661.072V252.24H665.352V254ZM670.419 254V253L676.479 248.5V248.4H675.019H670.499C669.325 248.4 668.419 248.113 667.779 247.54C667.139 246.953 666.819 246.173 666.819 245.2V243C666.819 242.027 667.139 241.253 667.779 240.68C668.419 240.093 669.325 239.8 670.499 239.8H677.579C678.752 239.8 679.659 240.093 680.299 240.68C680.939 241.253 681.259 242.027 681.259 243V245.3C681.259 245.967 681.092 246.547 680.759 247.04C680.425 247.533 679.872 248.073 679.099 248.66L672.039 254H670.419ZM677.299 246.64C677.992 246.64 678.512 246.493 678.859 246.2C679.205 245.893 679.379 245.447 679.379 244.86V243.32C679.379 242.147 678.685 241.56 677.299 241.56H670.779C669.392 241.56 668.699 242.147 668.699 243.32V244.86C668.699 245.447 668.872 245.893 669.219 246.2C669.565 246.493 670.085 246.64 670.779 246.64H677.299Z" fill="#212121"/>
<circle cx="746.332" cy="225" r="8" fill="#FFD17D"/>
<rect x="770.168" y="207.5" width="122.333" height="63" rx="11.5" stroke="#F4F4F4"/>
<path d="M782.868 254V252.34L792.368 246.98C793.101 246.567 793.628 246.187 793.948 245.84C794.268 245.493 794.428 245.04 794.428 244.48V243.52C794.428 242.347 793.735 241.76 792.348 241.76H783.708L783.128 241.16V240H792.628C793.801 240 794.708 240.293 795.348 240.88C796.001 241.453 796.328 242.227 796.328 243.2V244.74C796.328 245.447 796.101 246.08 795.648 246.64C795.208 247.2 794.495 247.76 793.508 248.32L786.768 252.14V252.24H796.328V254H782.868ZM803.22 254.2C802.047 254.2 801.134 253.913 800.48 253.34C799.84 252.753 799.52 251.973 799.52 251V243C799.52 242.027 799.84 241.253 800.48 240.68C801.134 240.093 802.047 239.8 803.22 239.8H810.18C811.354 239.8 812.26 240.093 812.9 240.68C813.554 241.253 813.88 242.027 813.88 243V251C813.88 251.973 813.554 252.753 812.9 253.34C812.26 253.913 811.354 254.2 810.18 254.2H803.22ZM809.9 252.44C811.287 252.44 811.98 251.853 811.98 250.68V243.32C811.98 242.147 811.287 241.56 809.9 241.56H803.5C802.114 241.56 801.42 242.147 801.42 243.32V250.68C801.42 251.853 802.114 252.44 803.5 252.44H809.9Z" fill="#212121"/>
<rect x="0.5" y="276.5" width="122" height="63" rx="11.5" stroke="#F4F4F4"/>
<path d="M13.2 323V321.34L22.7 315.98C23.4333 315.567 23.96 315.187 24.28 314.84C24.6 314.493 24.76 314.04 24.76 313.48V312.52C24.76 311.347 24.0667 310.76 22.68 310.76H14.04L13.46 310.16V309H22.96C24.1333 309 25.04 309.293 25.68 309.88C26.3333 310.453 26.66 311.227 26.66 312.2V313.74C26.66 314.447 26.4333 315.08 25.98 315.64C25.54 316.2 24.8267 316.76 23.84 317.32L17.1 321.14V321.24H26.66V323H13.2ZM40.1723 323H29.7123V321.24H33.9923V312.02H29.8323V310.3H33.9923V308.94H35.8923V321.24H40.1723V323Z" fill="#212121"/>
<circle cx="105" cy="294" r="8" fill="#EE5B5B"/>
<rect x="128.5" y="276.5" width="122.333" height="63" rx="11.5" stroke="#F4F4F4"/>
<path d="M141.2 323V321.34L150.7 315.98C151.433 315.567 151.96 315.187 152.28 314.84C152.6 314.493 152.76 314.04 152.76 313.48V312.52C152.76 311.347 152.067 310.76 150.68 310.76H142.04L141.46 310.16V309H150.96C152.133 309 153.04 309.293 153.68 309.88C154.333 310.453 154.66 311.227 154.66 312.2V313.74C154.66 314.447 154.433 315.08 153.98 315.64C153.54 316.2 152.827 316.76 151.84 317.32L145.1 321.14V321.24H154.66V323H141.2ZM157.352 323V321.34L166.852 315.98C167.586 315.567 168.112 315.187 168.432 314.84C168.752 314.493 168.912 314.04 168.912 313.48V312.52C168.912 311.347 168.219 310.76 166.832 310.76H158.192L157.612 310.16V309H167.112C168.286 309 169.192 309.293 169.832 309.88C170.486 310.453 170.812 311.227 170.812 312.2V313.74C170.812 314.447 170.586 315.08 170.132 315.64C169.692 316.2 168.979 316.76 167.992 317.32L161.252 321.14V321.24H170.812V323H157.352Z" fill="#212121"/>
<rect x="256.832" y="276.5" width="122.333" height="63" rx="11.5" stroke="#F4F4F4"/>
<path d="M269.532 323V321.34L279.032 315.98C279.765 315.567 280.292 315.187 280.612 314.84C280.932 314.493 281.092 314.04 281.092 313.48V312.52C281.092 311.347 280.399 310.76 279.012 310.76H270.372L269.792 310.16V309H279.292C280.465 309 281.372 309.293 282.012 309.88C282.665 310.453 282.992 311.227 282.992 312.2V313.74C282.992 314.447 282.765 315.08 282.312 315.64C281.872 316.2 281.159 316.76 280.172 317.32L273.432 321.14V321.24H282.992V323H269.532ZM285.644 323V321.24H295.224C296.611 321.24 297.304 320.653 297.304 319.48V318.48C297.304 317.893 297.131 317.453 296.784 317.16C296.438 316.853 295.918 316.7 295.224 316.7H289.144V315.1L295.344 310.86V310.76H286.224L285.644 310.16V309H298.624V310.6L292.344 314.9V315H295.504C296.678 315 297.584 315.293 298.224 315.88C298.864 316.453 299.184 317.227 299.184 318.2V319.8C299.184 320.773 298.864 321.553 298.224 322.14C297.584 322.713 296.678 323 295.504 323H285.644Z" fill="#212121"/>
<circle cx="361.332" cy="294" r="8" fill="#EE5B5B"/>
<rect x="385.168" y="276.5" width="122.333" height="63" rx="11.5" stroke="#F4F4F4"/>
<path d="M397.868 323V321.34L407.368 315.98C408.101 315.567 408.628 315.187 408.948 314.84C409.268 314.493 409.428 314.04 409.428 313.48V312.52C409.428 311.347 408.735 310.76 407.348 310.76H398.708L398.128 310.16V309H407.628C408.801 309 409.708 309.293 410.348 309.88C411.001 310.453 411.328 311.227 411.328 312.2V313.74C411.328 314.447 411.101 315.08 410.648 315.64C410.208 316.2 409.495 316.76 408.508 317.32L401.768 321.14V321.24H411.328V323H397.868ZM425.717 323H423.817V319.78H412.817V318.08L419.837 309H421.477V309.88L415.217 317.92V318.02H423.817V313.82H425.717V318.02H428.717V319.78H425.717V323Z" fill="#212121"/>
<circle cx="489.668" cy="294" r="8" fill="#437DE9"/>
<rect x="513.5" y="276.5" width="122.333" height="63" rx="11.5" stroke="#F4F4F4"/>
<path d="M526.2 323V321.34L535.7 315.98C536.433 315.567 536.96 315.187 537.28 314.84C537.6 314.493 537.76 314.04 537.76 313.48V312.52C537.76 311.347 537.067 310.76 535.68 310.76H527.04L526.46 310.16V309H535.96C537.133 309 538.04 309.293 538.68 309.88C539.333 310.453 539.66 311.227 539.66 312.2V313.74C539.66 314.447 539.433 315.08 538.98 315.64C538.54 316.2 537.827 316.76 536.84 317.32L530.1 321.14V321.24H539.66V323H526.2ZM542.712 323V321.24H552.192C553.579 321.24 554.272 320.653 554.272 319.48V317.94C554.272 317.353 554.099 316.913 553.752 316.62C553.406 316.313 552.886 316.16 552.192 316.16H542.852V309H555.612V310.16L555.032 310.76H544.752V314.4H552.472C553.646 314.4 554.552 314.693 555.192 315.28C555.832 315.853 556.152 316.627 556.152 317.6V319.8C556.152 320.773 555.832 321.553 555.192 322.14C554.552 322.713 553.646 323 552.472 323H542.712Z" fill="#212121"/>
<circle cx="618" cy="294" r="8" fill="#FFD17D"/>
<rect x="641.832" y="276.5" width="122.333" height="63" rx="11.5" stroke="#F4F4F4"/>
<path d="M654.532 323V321.34L664.032 315.98C664.765 315.567 665.292 315.187 665.612 314.84C665.932 314.493 666.092 314.04 666.092 313.48V312.52C666.092 311.347 665.399 310.76 664.012 310.76H655.372L654.792 310.16V309H664.292C665.465 309 666.372 309.293 667.012 309.88C667.665 310.453 667.992 311.227 667.992 312.2V313.74C667.992 314.447 667.765 315.08 667.312 315.64C666.872 316.2 666.159 316.76 665.172 317.32L658.432 321.14V321.24H667.992V323H654.532ZM673.721 323.2C672.548 323.2 671.641 322.913 671.001 322.34C670.361 321.753 670.041 320.973 670.041 320V317.7C670.041 317.033 670.208 316.453 670.541 315.96C670.875 315.467 671.428 314.927 672.201 314.34L679.281 309H680.881V310L674.821 314.5V314.6H676.281H680.801C681.975 314.6 682.881 314.893 683.521 315.48C684.161 316.053 684.481 316.827 684.481 317.8V320C684.481 320.973 684.161 321.753 683.521 322.34C682.881 322.913 681.975 323.2 680.801 323.2H673.721ZM680.521 321.44C681.908 321.44 682.601 320.853 682.601 319.68V318.14C682.601 317.553 682.428 317.113 682.081 316.82C681.735 316.513 681.215 316.36 680.521 316.36H674.001C673.308 316.36 672.788 316.513 672.441 316.82C672.095 317.113 671.921 317.553 671.921 318.14V319.68C671.921 320.853 672.615 321.44 674.001 321.44H680.521Z" fill="#212121"/>
<circle cx="746.332" cy="294" r="8" fill="#FFD17D"/>
<rect x="770.168" y="276.5" width="122.333" height="63" rx="11.5" stroke="#F4F4F4"/>
<path d="M782.868 323V321.34L792.368 315.98C793.101 315.567 793.628 315.187 793.948 314.84C794.268 314.493 794.428 314.04 794.428 313.48V312.52C794.428 311.347 793.735 310.76 792.348 310.76H783.708L783.128 310.16V309H792.628C793.801 309 794.708 309.293 795.348 309.88C796.001 310.453 796.328 311.227 796.328 312.2V313.74C796.328 314.447 796.101 315.08 795.648 315.64C795.208 316.2 794.495 316.76 793.508 317.32L786.768 321.14V321.24H796.328V323H782.868ZM803.297 323H801.597V321.98L808.857 310.9V310.8H797.717V309H811.217V310.7L803.297 323Z" fill="#212121"/>
<rect x="0.5" y="345.5" width="122" height="63" rx="11.5" stroke="#F4F4F4"/>
<path d="M13.2 392V390.34L22.7 384.98C23.4333 384.567 23.96 384.187 24.28 383.84C24.6 383.493 24.76 383.04 24.76 382.48V381.52C24.76 380.347 24.0667 379.76 22.68 379.76H14.04L13.46 379.16V378H22.96C24.1333 378 25.04 378.293 25.68 378.88C26.3333 379.453 26.66 380.227 26.66 381.2V382.74C26.66 383.447 26.4333 384.08 25.98 384.64C25.54 385.2 24.8267 385.76 23.84 386.32L17.1 390.14V390.24H26.66V392H13.2ZM33.2523 392.2C32.079 392.2 31.1657 391.913 30.5123 391.34C29.8723 390.753 29.5523 389.973 29.5523 389V387.54C29.5523 386.727 29.7657 386.08 30.1923 385.6C30.6323 385.107 31.1323 384.813 31.6923 384.72V384.62C31.2123 384.5 30.8123 384.227 30.4923 383.8C30.1857 383.36 30.0323 382.78 30.0323 382.06V381C30.0323 380.027 30.3523 379.253 30.9923 378.68C31.6457 378.093 32.559 377.8 33.7323 377.8H40.0923C41.2657 377.8 42.1723 378.093 42.8123 378.68C43.4657 379.253 43.7923 380.027 43.7923 381V382.06C43.7923 382.78 43.6323 383.36 43.3123 383.8C43.0057 384.227 42.6123 384.5 42.1323 384.62V384.72C42.679 384.813 43.1657 385.107 43.5923 385.6C44.0323 386.08 44.2523 386.727 44.2523 387.54V389C44.2523 389.973 43.9323 390.753 43.2923 391.34C42.6523 391.913 41.7457 392.2 40.5723 392.2H33.2523ZM39.8123 383.92C41.199 383.92 41.8923 383.327 41.8923 382.14V381.32C41.8923 380.147 41.199 379.56 39.8123 379.56H34.0123C32.6257 379.56 31.9323 380.147 31.9323 381.32V382.14C31.9323 383.327 32.6257 383.92 34.0123 383.92H39.8123ZM40.2923 390.44C41.679 390.44 42.3723 389.853 42.3723 388.68V387.4C42.3723 386.813 42.199 386.373 41.8523 386.08C41.5057 385.773 40.9857 385.62 40.2923 385.62H33.5323C32.839 385.62 32.319 385.773 31.9723 386.08C31.6257 386.373 31.4523 386.813 31.4523 387.4V388.68C31.4523 389.853 32.1457 390.44 33.5323 390.44H40.2923Z" fill="#212121"/>
<circle cx="105" cy="363" r="8" fill="#EE5B5B"/>
<rect x="128.5" y="345.5" width="122.333" height="63" rx="11.5" stroke="#F4F4F4"/>
<path d="M141.2 392V390.34L150.7 384.98C151.433 384.567 151.96 384.187 152.28 383.84C152.6 383.493 152.76 383.04 152.76 382.48V381.52C152.76 380.347 152.067 379.76 150.68 379.76H142.04L141.46 379.16V378H150.96C152.133 378 153.04 378.293 153.68 378.88C154.333 379.453 154.66 380.227 154.66 381.2V382.74C154.66 383.447 154.433 384.08 153.98 384.64C153.54 385.2 152.827 385.76 151.84 386.32L145.1 390.14V390.24H154.66V392H141.2ZM161.012 392V391L167.072 386.5V386.4H165.612H161.092C159.919 386.4 159.012 386.113 158.372 385.54C157.732 384.953 157.412 384.173 157.412 383.2V381C157.412 380.027 157.732 379.253 158.372 378.68C159.012 378.093 159.919 377.8 161.092 377.8H168.172C169.346 377.8 170.252 378.093 170.892 378.68C171.532 379.253 171.852 380.027 171.852 381V383.3C171.852 383.967 171.686 384.547 171.352 385.04C171.019 385.533 170.466 386.073 169.692 386.66L162.632 392H161.012ZM167.892 384.64C168.586 384.64 169.106 384.493 169.452 384.2C169.799 383.893 169.972 383.447 169.972 382.86V381.32C169.972 380.147 169.279 379.56 167.892 379.56H161.372C159.986 379.56 159.292 380.147 159.292 381.32V382.86C159.292 383.447 159.466 383.893 159.812 384.2C160.159 384.493 160.679 384.64 161.372 384.64H167.892Z" fill="#212121"/>
<rect x="256.832" y="345.5" width="122.333" height="63" rx="11.5" stroke="#F4F4F4"/>
<path d="M269.492 392V390.24H279.072C280.459 390.24 281.152 389.653 281.152 388.48V387.48C281.152 386.893 280.979 386.453 280.632 386.16C280.285 385.853 279.765 385.7 279.072 385.7H272.992V384.1L279.192 379.86V379.76H270.072L269.492 379.16V378H282.472V379.6L276.192 383.9V384H279.352C280.525 384 281.432 384.293 282.072 384.88C282.712 385.453 283.032 386.227 283.032 387.2V388.8C283.032 389.773 282.712 390.553 282.072 391.14C281.432 391.713 280.525 392 279.352 392H269.492ZM289.806 392.2C288.633 392.2 287.72 391.913 287.066 391.34C286.426 390.753 286.106 389.973 286.106 389V381C286.106 380.027 286.426 379.253 287.066 378.68C287.72 378.093 288.633 377.8 289.806 377.8H296.766C297.94 377.8 298.846 378.093 299.486 378.68C300.14 379.253 300.466 380.027 300.466 381V389C300.466 389.973 300.14 390.753 299.486 391.34C298.846 391.913 297.94 392.2 296.766 392.2H289.806ZM296.486 390.44C297.873 390.44 298.566 389.853 298.566 388.68V381.32C298.566 380.147 297.873 379.56 296.486 379.56H290.086C288.7 379.56 288.006 380.147 288.006 381.32V388.68C288.006 389.853 288.7 390.44 290.086 390.44H296.486Z" fill="#212121"/>
<circle cx="361.332" cy="363" r="8" fill="#EE5B5B"/>
<rect x="385.168" y="345.5" width="122.333" height="63" rx="11.5" stroke="#F4F4F4"/>
<path d="M397.828 392V390.24H407.408C408.795 390.24 409.488 389.653 409.488 388.48V387.48C409.488 386.893 409.315 386.453 408.968 386.16C408.621 385.853 408.101 385.7 407.408 385.7H401.328V384.1L407.528 379.86V379.76H398.408L397.828 379.16V378H410.808V379.6L404.528 383.9V384H407.688C408.861 384 409.768 384.293 410.408 384.88C411.048 385.453 411.368 386.227 411.368 387.2V388.8C411.368 389.773 411.048 390.553 410.408 391.14C409.768 391.713 408.861 392 407.688 392H397.828ZM424.762 392H414.302V390.24H418.582V381.02H414.422V379.3H418.582V377.94H420.482V390.24H424.762V392Z" fill="#212121"/>
<circle cx="489.668" cy="363" r="8" fill="#437DE9"/>
<rect x="513.5" y="345.5" width="122.333" height="63" rx="11.5" stroke="#F4F4F4"/>
<path d="M530.4 392.2C529.307 392.2 528.433 391.913 527.78 391.34C527.127 390.753 526.8 389.973 526.8 389V381C526.8 380.027 527.127 379.253 527.78 378.68C528.433 378.093 529.307 377.8 530.4 377.8H537C538.093 377.8 538.967 378.093 539.62 378.68C540.273 379.253 540.6 380.027 540.6 381V389C540.6 389.973 540.273 390.753 539.62 391.34C538.967 391.913 538.093 392.2 537 392.2H530.4ZM536.9 390.9C537.66 390.9 538.247 390.733 538.66 390.4C539.087 390.053 539.3 389.553 539.3 388.9V381.1C539.3 380.447 539.087 379.953 538.66 379.62C538.247 379.273 537.66 379.1 536.9 379.1H530.5C529.74 379.1 529.147 379.273 528.72 379.62C528.307 379.953 528.1 380.447 528.1 381.1V388.9C528.1 389.553 528.307 390.053 528.72 390.4C529.147 390.733 529.74 390.9 530.5 390.9H536.9ZM553.702 392H544.002V390.7H548.202V380.7H544.102V379.4H548.202V377.9H549.502V390.7H553.702V392Z" fill="#CCCCCC"/>
<circle cx="618" cy="363" r="8" fill="#FFD17D"/>
<rect x="641.832" y="345.5" width="122.333" height="63" rx="11.5" stroke="#F4F4F4"/>
<path d="M658.732 392.2C657.639 392.2 656.765 391.913 656.112 391.34C655.459 390.753 655.132 389.973 655.132 389V381C655.132 380.027 655.459 379.253 656.112 378.68C656.765 378.093 657.639 377.8 658.732 377.8H665.332C666.425 377.8 667.299 378.093 667.952 378.68C668.605 379.253 668.932 380.027 668.932 381V389C668.932 389.973 668.605 390.753 667.952 391.34C667.299 391.913 666.425 392.2 665.332 392.2H658.732ZM665.232 390.9C665.992 390.9 666.579 390.733 666.992 390.4C667.419 390.053 667.632 389.553 667.632 388.9V381.1C667.632 380.447 667.419 379.953 666.992 379.62C666.579 379.273 665.992 379.1 665.232 379.1H658.832C658.072 379.1 657.479 379.273 657.052 379.62C656.639 379.953 656.432 380.447 656.432 381.1V388.9C656.432 389.553 656.639 390.053 657.052 390.4C657.479 390.733 658.072 390.9 658.832 390.9H665.232ZM671.231 392V390.8L680.691 385.4C681.411 384.987 681.965 384.573 682.351 384.16C682.738 383.733 682.931 383.18 682.931 382.5V381.3C682.931 380.647 682.718 380.153 682.291 379.82C681.878 379.473 681.291 379.3 680.531 379.3H671.871L671.491 378.9V378H680.631C681.725 378 682.598 378.293 683.251 378.88C683.905 379.453 684.231 380.227 684.231 381.2V382.7C684.231 383.447 684.005 384.12 683.551 384.72C683.111 385.307 682.418 385.867 681.471 386.4L674.131 390.6V390.7H684.231V392H671.231Z" fill="#CCCCCC"/>
<circle cx="746.332" cy="363" r="8" fill="#FFD17D"/>
<rect x="770.168" y="345.5" width="122.333" height="63" rx="11.5" stroke="#F4F4F4"/>
<path d="M787.068 392.2C785.975 392.2 785.101 391.913 784.448 391.34C783.795 390.753 783.468 389.973 783.468 389V381C783.468 380.027 783.795 379.253 784.448 378.68C785.101 378.093 785.975 377.8 787.068 377.8H793.668C794.761 377.8 795.635 378.093 796.288 378.68C796.941 379.253 797.268 380.027 797.268 381V389C797.268 389.973 796.941 390.753 796.288 391.34C795.635 391.913 794.761 392.2 793.668 392.2H787.068ZM793.568 390.9C794.328 390.9 794.915 390.733 795.328 390.4C795.755 390.053 795.968 389.553 795.968 388.9V381.1C795.968 380.447 795.755 379.953 795.328 379.62C794.915 379.273 794.328 379.1 793.568 379.1H787.168C786.408 379.1 785.815 379.273 785.388 379.62C784.975 379.953 784.768 380.447 784.768 381.1V388.9C784.768 389.553 784.975 390.053 785.388 390.4C785.815 390.733 786.408 390.9 787.168 390.9H793.568ZM799.567 392V390.7H808.967C809.727 390.7 810.314 390.533 810.727 390.2C811.154 389.853 811.367 389.353 811.367 388.7V387.4C811.367 386.747 811.154 386.253 810.727 385.92C810.314 385.573 809.727 385.4 808.967 385.4H803.087V384.2L809.827 379.4V379.3H799.967L799.567 378.9V378H812.167V379.2L805.427 384V384.1H809.067C810.161 384.1 811.034 384.393 811.687 384.98C812.341 385.553 812.667 386.327 812.667 387.3V388.8C812.667 389.773 812.341 390.553 811.687 391.14C811.034 391.713 810.161 392 809.067 392H799.567Z" fill="#CCCCCC"/>
<rect x="0.5" y="414.5" width="122" height="63" rx="11.5" stroke="#F4F4F4"/>
<path d="M17.4 461.2C16.3067 461.2 15.4333 460.913 14.78 460.34C14.1267 459.753 13.8 458.973 13.8 458V450C13.8 449.027 14.1267 448.253 14.78 447.68C15.4333 447.093 16.3067 446.8 17.4 446.8H24C25.0933 446.8 25.9667 447.093 26.62 447.68C27.2733 448.253 27.6 449.027 27.6 450V458C27.6 458.973 27.2733 459.753 26.62 460.34C25.9667 460.913 25.0933 461.2 24 461.2H17.4ZM23.9 459.9C24.66 459.9 25.2467 459.733 25.66 459.4C26.0867 459.053 26.3 458.553 26.3 457.9V450.1C26.3 449.447 26.0867 448.953 25.66 448.62C25.2467 448.273 24.66 448.1 23.9 448.1H17.5C16.74 448.1 16.1467 448.273 15.72 448.62C15.3067 448.953 15.1 449.447 15.1 450.1V457.9C15.1 458.553 15.3067 459.053 15.72 459.4C16.1467 459.733 16.74 459.9 17.5 459.9H23.9ZM42.4023 461H41.1023V457.6H30.1023V456.3L37.1423 447H38.3423V447.6L31.8023 456.2V456.3H41.1023V451.6H42.4023V456.3H45.5023V457.6H42.4023V461Z" fill="#CCCCCC"/>
<circle cx="105" cy="432" r="8" fill="#EE5B5B"/>
<rect x="128.5" y="414.5" width="122.333" height="63" rx="11.5" stroke="#F4F4F4"/>
<path d="M145.4 461.2C144.307 461.2 143.433 460.913 142.78 460.34C142.127 459.753 141.8 458.973 141.8 458V450C141.8 449.027 142.127 448.253 142.78 447.68C143.433 447.093 144.307 446.8 145.4 446.8H152C153.093 446.8 153.967 447.093 154.62 447.68C155.273 448.253 155.6 449.027 155.6 450V458C155.6 458.973 155.273 459.753 154.62 460.34C153.967 460.913 153.093 461.2 152 461.2H145.4ZM151.9 459.9C152.66 459.9 153.247 459.733 153.66 459.4C154.087 459.053 154.3 458.553 154.3 457.9V450.1C154.3 449.447 154.087 448.953 153.66 448.62C153.247 448.273 152.66 448.1 151.9 448.1H145.5C144.74 448.1 144.147 448.273 143.72 448.62C143.307 448.953 143.1 449.447 143.1 450.1V457.9C143.1 458.553 143.307 459.053 143.72 459.4C144.147 459.733 144.74 459.9 145.5 459.9H151.9ZM159.102 461V459.7H168.302C169.062 459.7 169.649 459.533 170.062 459.2C170.489 458.853 170.702 458.353 170.702 457.7V455.8C170.702 455.147 170.489 454.653 170.062 454.32C169.649 453.973 169.062 453.8 168.302 453.8H159.202V447H171.422V447.9L171.022 448.3H160.502V452.5H168.402C169.496 452.5 170.369 452.793 171.022 453.38C171.676 453.953 172.002 454.727 172.002 455.7V457.8C172.002 458.773 171.676 459.553 171.022 460.14C170.369 460.713 169.496 461 168.402 461H159.102Z" fill="#CCCCCC"/>
<rect x="256.832" y="414.5" width="122.333" height="63" rx="11.5" stroke="#F4F4F4"/>
<path d="M273.732 461.2C272.639 461.2 271.765 460.913 271.112 460.34C270.459 459.753 270.132 458.973 270.132 458V450C270.132 449.027 270.459 448.253 271.112 447.68C271.765 447.093 272.639 446.8 273.732 446.8H280.332C281.425 446.8 282.299 447.093 282.952 447.68C283.605 448.253 283.932 449.027 283.932 450V458C283.932 458.973 283.605 459.753 282.952 460.34C282.299 460.913 281.425 461.2 280.332 461.2H273.732ZM280.232 459.9C280.992 459.9 281.579 459.733 281.992 459.4C282.419 459.053 282.632 458.553 282.632 457.9V450.1C282.632 449.447 282.419 448.953 281.992 448.62C281.579 448.273 280.992 448.1 280.232 448.1H273.832C273.072 448.1 272.479 448.273 272.052 448.62C271.639 448.953 271.432 449.447 271.432 450.1V457.9C271.432 458.553 271.639 459.053 272.052 459.4C272.479 459.733 273.072 459.9 273.832 459.9H280.232ZM290.634 461.2C289.541 461.2 288.668 460.913 288.014 460.34C287.361 459.753 287.034 458.973 287.034 458V455.9C287.034 455.18 287.194 454.58 287.514 454.1C287.848 453.62 288.374 453.1 289.094 452.54L296.234 447H297.434V447.7L291.074 452.6V452.7H292.514H297.434C298.528 452.7 299.401 452.993 300.054 453.58C300.708 454.153 301.034 454.927 301.034 455.9V458C301.034 458.973 300.708 459.753 300.054 460.34C299.401 460.913 298.528 461.2 297.434 461.2H290.634ZM297.334 459.9C298.094 459.9 298.681 459.733 299.094 459.4C299.521 459.053 299.734 458.553 299.734 457.9V456C299.734 455.347 299.521 454.853 299.094 454.52C298.681 454.173 298.094 454 297.334 454H290.734C289.974 454 289.381 454.173 288.954 454.52C288.541 454.853 288.334 455.347 288.334 456V457.9C288.334 458.553 288.541 459.053 288.954 459.4C289.381 459.733 289.974 459.9 290.734 459.9H297.334Z" fill="#CCCCCC"/>
<circle cx="361.332" cy="432" r="8" fill="#EE5B5B"/>
<rect x="385.168" y="414.5" width="122.333" height="63" rx="11.5" stroke="#F4F4F4"/>
<path d="M402.068 461.2C400.975 461.2 400.101 460.913 399.448 460.34C398.795 459.753 398.468 458.973 398.468 458V450C398.468 449.027 398.795 448.253 399.448 447.68C400.101 447.093 400.975 446.8 402.068 446.8H408.668C409.761 446.8 410.635 447.093 411.288 447.68C411.941 448.253 412.268 449.027 412.268 450V458C412.268 458.973 411.941 459.753 411.288 460.34C410.635 460.913 409.761 461.2 408.668 461.2H402.068ZM408.568 459.9C409.328 459.9 409.915 459.733 410.328 459.4C410.755 459.053 410.968 458.553 410.968 457.9V450.1C410.968 449.447 410.755 448.953 410.328 448.62C409.915 448.273 409.328 448.1 408.568 448.1H402.168C401.408 448.1 400.815 448.273 400.388 448.62C399.975 448.953 399.768 449.447 399.768 450.1V457.9C399.768 458.553 399.975 459.053 400.388 459.4C400.815 459.733 401.408 459.9 402.168 459.9H408.568ZM418.987 461H417.787V460.3L425.367 448.4V448.3H413.967V447H427.067V448.2L418.987 461Z" fill="#CCCCCC"/>
<circle cx="489.668" cy="432" r="8" fill="#437DE9"/>
<rect x="513.5" y="414.5" width="122.333" height="63" rx="11.5" stroke="#F4F4F4"/>
<path d="M530.4 461.2C529.307 461.2 528.433 460.913 527.78 460.34C527.127 459.753 526.8 458.973 526.8 458V450C526.8 449.027 527.127 448.253 527.78 447.68C528.433 447.093 529.307 446.8 530.4 446.8H537C538.093 446.8 538.967 447.093 539.62 447.68C540.273 448.253 540.6 449.027 540.6 450V458C540.6 458.973 540.273 459.753 539.62 460.34C538.967 460.913 538.093 461.2 537 461.2H530.4ZM536.9 459.9C537.66 459.9 538.247 459.733 538.66 459.4C539.087 459.053 539.3 458.553 539.3 457.9V450.1C539.3 449.447 539.087 448.953 538.66 448.62C538.247 448.273 537.66 448.1 536.9 448.1H530.5C529.74 448.1 529.147 448.273 528.72 448.62C528.307 448.953 528.1 449.447 528.1 450.1V457.9C528.1 458.553 528.307 459.053 528.72 459.4C529.147 459.733 529.74 459.9 530.5 459.9H536.9ZM547.502 461.2C546.409 461.2 545.536 460.913 544.882 460.34C544.229 459.753 543.902 458.973 543.902 458V456.5C543.902 455.967 544.009 455.5 544.222 455.1C544.449 454.7 544.729 454.38 545.062 454.14C545.396 453.9 545.729 453.753 546.062 453.7V453.6C545.569 453.467 545.169 453.18 544.862 452.74C544.556 452.3 544.402 451.72 544.402 451V450C544.402 449.027 544.729 448.253 545.382 447.68C546.036 447.093 546.909 446.8 548.002 446.8H554.002C555.096 446.8 555.969 447.093 556.622 447.68C557.276 448.253 557.602 449.027 557.602 450V451C557.602 451.72 557.449 452.3 557.142 452.74C556.836 453.18 556.436 453.467 555.942 453.6V453.7C556.276 453.753 556.609 453.9 556.942 454.14C557.276 454.38 557.549 454.7 557.762 455.1C557.989 455.5 558.102 455.967 558.102 456.5V458C558.102 458.973 557.776 459.753 557.122 460.34C556.469 460.913 555.596 461.2 554.502 461.2H547.502ZM553.902 453.1C554.662 453.1 555.249 452.933 555.662 452.6C556.089 452.253 556.302 451.753 556.302 451.1V450.1C556.302 449.447 556.089 448.953 555.662 448.62C555.249 448.273 554.662 448.1 553.902 448.1H548.102C547.342 448.1 546.749 448.273 546.322 448.62C545.909 448.953 545.702 449.447 545.702 450.1V451.1C545.702 451.753 545.909 452.253 546.322 452.6C546.749 452.933 547.342 453.1 548.102 453.1H553.902ZM554.402 459.9C555.162 459.9 555.749 459.733 556.162 459.4C556.589 459.053 556.802 458.553 556.802 457.9V456.4C556.802 455.747 556.589 455.253 556.162 454.92C555.749 454.573 555.162 454.4 554.402 454.4H547.602C546.842 454.4 546.249 454.573 545.822 454.92C545.409 455.253 545.202 455.747 545.202 456.4V457.9C545.202 458.553 545.409 459.053 545.822 459.4C546.249 459.733 546.842 459.9 547.602 459.9H554.402Z" fill="#CCCCCC"/>
<circle cx="618" cy="432" r="8" fill="#FFD17D"/>
<rect x="641.832" y="414.5" width="122.333" height="63" rx="11.5" stroke="#F4F4F4"/>
<path d="M658.732 461.2C657.639 461.2 656.765 460.913 656.112 460.34C655.459 459.753 655.132 458.973 655.132 458V450C655.132 449.027 655.459 448.253 656.112 447.68C656.765 447.093 657.639 446.8 658.732 446.8H665.332C666.425 446.8 667.299 447.093 667.952 447.68C668.605 448.253 668.932 449.027 668.932 450V458C668.932 458.973 668.605 459.753 667.952 460.34C667.299 460.913 666.425 461.2 665.332 461.2H658.732ZM665.232 459.9C665.992 459.9 666.579 459.733 666.992 459.4C667.419 459.053 667.632 458.553 667.632 457.9V450.1C667.632 449.447 667.419 448.953 666.992 448.62C666.579 448.273 665.992 448.1 665.232 448.1H658.832C658.072 448.1 657.479 448.273 657.052 448.62C656.639 448.953 656.432 449.447 656.432 450.1V457.9C656.432 458.553 656.639 459.053 657.052 459.4C657.479 459.733 658.072 459.9 658.832 459.9H665.232ZM675.634 461V460.3L681.994 455.4V455.3H680.554H675.634C674.541 455.3 673.668 455.013 673.014 454.44C672.361 453.853 672.034 453.073 672.034 452.1V450C672.034 449.027 672.361 448.253 673.014 447.68C673.668 447.093 674.541 446.8 675.634 446.8H682.434C683.528 446.8 684.401 447.093 685.054 447.68C685.708 448.253 686.034 449.027 686.034 450V452.1C686.034 452.82 685.868 453.42 685.534 453.9C685.214 454.38 684.694 454.9 683.974 455.46L676.834 461H675.634ZM682.334 454C683.094 454 683.681 453.833 684.094 453.5C684.521 453.153 684.734 452.653 684.734 452V450.1C684.734 449.447 684.521 448.953 684.094 448.62C683.681 448.273 683.094 448.1 682.334 448.1H675.734C674.974 448.1 674.381 448.273 673.954 448.62C673.541 448.953 673.334 449.447 673.334 450.1V452C673.334 452.653 673.541 453.153 673.954 453.5C674.381 453.833 674.974 454 675.734 454H682.334Z" fill="#CCCCCC"/>
<circle cx="746.332" cy="432" r="8" fill="#FFD17D"/>
<rect x="770.168" y="414.5" width="122.333" height="63" rx="11.5" stroke="#F4F4F4"/>
<path d="M792.968 461H783.268V459.7H787.468V449.7H783.368V448.4H787.468V446.9H788.768V459.7H792.968V461ZM798.572 461.2C797.479 461.2 796.605 460.913 795.952 460.34C795.299 459.753 794.972 458.973 794.972 458V450C794.972 449.027 795.299 448.253 795.952 447.68C796.605 447.093 797.479 446.8 798.572 446.8H805.172C806.265 446.8 807.139 447.093 807.792 447.68C808.445 448.253 808.772 449.027 808.772 450V458C808.772 458.973 808.445 459.753 807.792 460.34C807.139 460.913 806.265 461.2 805.172 461.2H798.572ZM805.072 459.9C805.832 459.9 806.419 459.733 806.832 459.4C807.259 459.053 807.472 458.553 807.472 457.9V450.1C807.472 449.447 807.259 448.953 806.832 448.62C806.419 448.273 805.832 448.1 805.072 448.1H798.672C797.912 448.1 797.319 448.273 796.892 448.62C796.479 448.953 796.272 449.447 796.272 450.1V457.9C796.272 458.553 796.479 459.053 796.892 459.4C797.319 459.733 797.912 459.9 798.672 459.9H805.072Z" fill="#CCCCCC"/>
</svg>
