<svg width="23" height="20" viewBox="0 0 23 20" fill="none" xmlns="http://www.w3.org/2000/svg">
<path d="M16.9776 7.01106C16.985 7.01102 16.9925 7.01101 17 7.01101C19.4853 7.01101 21.5 9.02942 21.5 11.5193C21.5 13.8398 19.75 15.7508 17.5 16M16.9776 7.01106C16.9924 6.84606 17 6.67896 17 6.51009C17 3.46695 14.5376 1 11.5 1C8.62324 1 6.26233 3.21267 6.02042 6.03192M16.9776 7.01106C16.8753 8.14759 16.4286 9.1846 15.7428 10.0165M6.02042 6.03192C3.48398 6.27373 1.5 8.41392 1.5 11.0183C1.5 13.4417 3.21776 15.4632 5.5 15.9273M6.02042 6.03192C6.17826 6.01687 6.33823 6.00917 6.5 6.00917C7.62582 6.00917 8.66474 6.38194 9.50049 7.01101" stroke="white" stroke-width="1.5" stroke-linecap="round" stroke-linejoin="round"/>
<path d="M11.5 19L11.5 11M11.5 19C10.7998 19 9.49153 17.0057 9 16.5M11.5 19C12.2002 19 13.5085 17.0057 14 16.5" stroke="white" stroke-width="1.5" stroke-linecap="round" stroke-linejoin="round"/>
</svg>
