<svg width="36" height="36" viewBox="0 0 36 36" fill="none" xmlns="http://www.w3.org/2000/svg">
<rect width="36" height="36" rx="8" fill="#F4F4F4"/>
<path d="M25.5 11.5L25.0982 18.0062M10.5 11.5L11.1046 21.5248C11.2595 24.0922 11.3369 25.3759 11.9787 26.299C12.296 26.7554 12.7048 27.1407 13.1791 27.4302C13.8503 27.84 14.6811 27.9631 16 28" stroke="#212121" stroke-width="1.5" stroke-linecap="round"/>
<path d="M26 21L19 27.9995M26 28L19 21.0005" stroke="#212121" stroke-width="1.5" stroke-linecap="round" stroke-linejoin="round"/>
<path d="M9 11.5H27M22.0557 11.5L21.3731 10.0917C20.9196 9.15626 20.6928 8.68852 20.3017 8.39681C20.215 8.3321 20.1231 8.27454 20.027 8.2247C19.5939 8 19.0741 8 18.0345 8C16.9688 8 16.436 8 15.9957 8.23412C15.8981 8.28601 15.805 8.3459 15.7173 8.41317C15.3216 8.7167 15.1006 9.20155 14.6586 10.1713L14.0529 11.5" stroke="#212121" stroke-width="1.5" stroke-linecap="round"/>
</svg>
