<svg width="36" height="36" viewBox="0 0 36 36" fill="none" xmlns="http://www.w3.org/2000/svg">
<rect width="36" height="36" rx="8" fill="#F4F4F4"/>
<path d="M13 23L13 19" stroke="#212121" stroke-width="1.5" stroke-linecap="round"/>
<path d="M18 23L18 13" stroke="#212121" stroke-width="1.5" stroke-linecap="round"/>
<path d="M23 23L23 17" stroke="#212121" stroke-width="1.5" stroke-linecap="round"/>
<path d="M8.5 18C8.5 13.5217 8.5 11.2825 9.89124 9.89124C11.2825 8.5 13.5217 8.5 18 8.5C22.4783 8.5 24.7175 8.5 26.1088 9.89124C27.5 11.2825 27.5 13.5217 27.5 18C27.5 22.4783 27.5 24.7175 26.1088 26.1088C24.7175 27.5 22.4783 27.5 18 27.5C13.5217 27.5 11.2825 27.5 9.89124 26.1088C8.5 24.7175 8.5 22.4783 8.5 18Z" stroke="#212121" stroke-width="1.5" stroke-linejoin="round"/>
</svg>
