<svg width="22" height="20" viewBox="0 0 22 20" fill="none" xmlns="http://www.w3.org/2000/svg">
<path d="M12.2403 15.5C12.1932 15.8033 12.1508 16.0485 12.1141 16.2442C11.8853 17.4657 10.1532 18.2006 9.22601 18.8563C8.67406 19.2466 8.0043 18.782 7.93278 18.1778C7.79643 17.0261 7.53961 14.6864 7.25927 11.2614C7.23409 10.9539 7.08486 10.6761 6.85746 10.5061C4.36901 8.64561 2.59564 6.59915 1.62734 5.44867C1.3276 5.09253 1.22938 4.8319 1.17033 4.3728C0.968115 2.8008 0.867009 2.0148 1.32795 1.5074C1.7889 1 2.60404 1 4.23433 1H15.7657C17.396 1 18.2111 1 18.672 1.5074C18.8956 1.75346 18.9869 2.06504 18.9987 2.5" stroke="#212121" stroke-width="1.5" stroke-linecap="round" stroke-linejoin="round"/>
<path d="M14.3477 12.8557L14.1909 12.1223L14.3477 12.8557ZM13.1443 11.6523L13.8777 11.8091L13.1443 11.6523ZM14.0207 9.11171L13.4903 8.58138H13.4903L14.0207 9.11171ZM20.7963 6.47729L21.4458 6.10229L20.7963 6.47729ZM20.7963 7.99807L21.4458 8.37307L20.7963 7.99807ZM19.5227 5.20375L19.8977 4.55423L19.5227 5.20375ZM17.3285 5.80388L17.8588 6.33421L17.3285 5.80388ZM18.0019 5.20375L17.6269 4.55423L17.6269 4.55423L18.0019 5.20375ZM20.1961 8.67149L19.6658 8.14116L16.358 11.449L16.8883 11.9793L17.4186 12.5097L20.7265 9.20182L20.1961 8.67149ZM14.0207 9.11171L14.551 9.64205L17.8588 6.33421L17.3285 5.80388L16.7982 5.27355L13.4903 8.58138L14.0207 9.11171ZM14.3477 12.8557L14.1909 12.1223C14.0155 12.1598 13.8753 12.1897 13.7548 12.2121C13.6333 12.2347 13.5536 12.2454 13.4996 12.2488C13.4441 12.2524 13.4479 12.2458 13.4825 12.2547C13.5296 12.2669 13.5936 12.2972 13.6482 12.3518L13.1179 12.8821L12.5876 13.4124C12.9113 13.7362 13.3158 13.7636 13.5948 13.7458C13.8603 13.7289 14.1839 13.6577 14.5045 13.5891L14.3477 12.8557ZM13.1443 11.6523L12.4109 11.4955C12.3423 11.8161 12.2711 12.1397 12.2542 12.4052C12.2364 12.6842 12.2638 13.0887 12.5876 13.4124L13.1179 12.8821L13.6482 12.3518C13.7028 12.4064 13.7331 12.4704 13.7453 12.5175C13.7542 12.5521 13.7476 12.5559 13.7512 12.5004C13.7546 12.4464 13.7653 12.3667 13.7879 12.2452C13.8103 12.1247 13.8402 11.9845 13.8777 11.8091L13.1443 11.6523ZM20.1961 5.80388L19.6658 6.33421C20.0333 6.7017 20.1084 6.78597 20.1467 6.85229L20.7963 6.47729L21.4458 6.10229C21.2839 5.82184 21.0257 5.57275 20.7265 5.27355L20.1961 5.80388ZM20.1961 8.67149L20.7265 9.20182C21.0257 8.90261 21.2839 8.65353 21.4458 8.37307L20.7963 7.99807L20.1467 7.62307C20.1084 7.6894 20.0333 7.77367 19.6658 8.14116L20.1961 8.67149ZM20.7963 6.47729L20.1467 6.85229C20.2844 7.09077 20.2844 7.38459 20.1467 7.62307L20.7963 7.99807L21.4458 8.37307C21.8514 7.67049 21.8514 6.80488 21.4458 6.10229L20.7963 6.47729ZM20.1961 5.80388L20.7265 5.27355C20.4272 4.97434 20.1782 4.71615 19.8977 4.55423L19.5227 5.20375L19.1477 5.85327C19.214 5.89156 19.2983 5.96671 19.6658 6.33421L20.1961 5.80388ZM17.3285 5.80388L17.8588 6.33421C18.2263 5.96672 18.3106 5.89156 18.3769 5.85327L18.0019 5.20375L17.6269 4.55423C17.3465 4.71615 17.0974 4.97434 16.7982 5.27355L17.3285 5.80388ZM19.5227 5.20375L19.8977 4.55423C19.1951 4.14859 18.3295 4.14859 17.6269 4.55423L18.0019 5.20375L18.3769 5.85327C18.6154 5.71558 18.9092 5.71558 19.1477 5.85327L19.5227 5.20375ZM16.8883 11.9793L16.358 11.449C16.1624 11.6445 15.8952 11.771 15.5155 11.8679C15.3253 11.9165 15.1224 11.954 14.8963 11.9931C14.679 12.0306 14.4303 12.0711 14.1909 12.1223L14.3477 12.8557L14.5045 13.5891C14.7063 13.546 14.9131 13.5124 15.1517 13.4712C15.3814 13.4315 15.6346 13.3856 15.8866 13.3213C16.3914 13.1924 16.9533 12.975 17.4186 12.5097L16.8883 11.9793ZM13.1443 11.6523L13.8777 11.8091C13.9289 11.5697 13.9694 11.321 14.0069 11.1037C14.046 10.8776 14.0835 10.6747 14.1321 10.4845C14.229 10.1048 14.3555 9.83758 14.551 9.64205L14.0207 9.11171L13.4903 8.58138C13.025 9.0467 12.8076 9.60863 12.6787 10.1134C12.6144 10.3654 12.5685 10.6186 12.5288 10.8483C12.4876 11.0869 12.454 11.2937 12.4109 11.4955L13.1443 11.6523Z" fill="#212121"/>
</svg>
