<svg width="23" height="22" viewBox="0 0 23 22" fill="none" xmlns="http://www.w3.org/2000/svg">
<path d="M1.5 14C1.64277 14.4274 1.81023 14.8431 2.00062 15.2452M3.62547 17.7463C3.94158 18.1137 4.281 18.4596 4.64137 18.7814M8.5 21C8.05224 20.8557 7.61701 20.6824 7.19641 20.4822" stroke="#212121" stroke-width="1.5" stroke-linecap="round" stroke-linejoin="round"/>
<path d="M11.5 12.5C12.3284 12.5 13 11.8284 13 11C13 10.1716 12.3284 9.5 11.5 9.5C10.6716 9.5 10 10.1716 10 11M11.5 12.5C10.6716 12.5 10 11.8284 10 11M11.5 12.5V15M10 11H5.5" stroke="#212121" stroke-width="1.5" stroke-linecap="round"/>
<path d="M11.5 21C17.0228 21 21.5 16.5228 21.5 11C21.5 5.47715 17.0228 0.999999 11.5 1C5.97715 1 1.5 5.47715 1.5 11" stroke="#212121" stroke-width="1.5" stroke-linecap="round"/>
</svg>
