<svg width="28" height="28" viewBox="0 0 28 28" fill="none" xmlns="http://www.w3.org/2000/svg">
<path d="M1.33203 14.0007C1.33203 8.02953 1.33203 5.04397 3.18702 3.18897C5.04201 1.33398 8.02757 1.33398 13.9987 1.33398C19.9698 1.33398 22.9554 1.33398 24.8104 3.18897C26.6654 5.04397 26.6654 8.02953 26.6654 14.0007C26.6654 19.9718 26.6654 22.9573 24.8104 24.8123C22.9554 26.6673 19.9698 26.6673 13.9987 26.6673C8.02757 26.6673 5.04201 26.6673 3.18702 24.8123C1.33203 22.9573 1.33203 19.9718 1.33203 14.0007Z" stroke="white" stroke-width="2" stroke-linejoin="round"/>
<path d="M9.33203 11.334C8.22746 11.334 7.33203 10.4386 7.33203 9.33398C7.33203 8.22941 8.22746 7.33398 9.33203 7.33398C10.4366 7.33398 11.332 8.22941 11.332 9.33398C11.332 10.4386 10.4366 11.334 9.33203 11.334Z" stroke="white" stroke-width="2"/>
<path d="M18.668 20.666C19.7725 20.666 20.668 19.7706 20.668 18.666C20.668 17.5614 19.7725 16.666 18.668 16.666C17.5634 16.666 16.668 17.5614 16.668 18.666C16.668 19.7706 17.5634 20.666 18.668 20.666Z" stroke="white" stroke-width="2"/>
<path d="M11.3346 9.33398L20.668 9.33398" stroke="white" stroke-width="2" stroke-linecap="round"/>
<path d="M16.6654 18.666L7.33203 18.666" stroke="white" stroke-width="2" stroke-linecap="round"/>
</svg>
