<svg width="20" height="20" viewBox="0 0 20 20" fill="none" xmlns="http://www.w3.org/2000/svg">
<path d="M4.59961 9.92298C9.67225 0.468695 15.9886 0.359674 18.5127 1.48695C19.64 4.01105 19.531 10.3274 10.0767 15.4C9.97863 14.8364 9.43337 13.3599 8.03655 11.9631C6.63973 10.5663 5.16325 10.021 4.59961 9.92298Z" stroke="white" stroke-width="1.5" stroke-linecap="round" stroke-linejoin="round"/>
<path d="M11.3496 14.95C13.1881 15.85 13.3844 17.4638 13.6391 19C13.6391 19 17.4897 16.1535 15.0266 12.25" stroke="white" stroke-width="1.5" stroke-linecap="round" stroke-linejoin="round"/>
<path d="M5.04996 8.72646C4.14996 6.88795 2.53615 6.69166 1 6.43697C1 6.43697 3.8465 2.58633 7.74997 5.04944" stroke="white" stroke-width="1.5" stroke-linecap="round" stroke-linejoin="round"/>
<path d="M4.01808 12.912C3.50625 13.4238 2.63613 14.9081 3.25033 16.7507C5.09293 17.3649 6.57725 16.4948 7.08909 15.983" stroke="white" stroke-width="1.5" stroke-linecap="round" stroke-linejoin="round"/>
<path d="M15.3008 6.44922C15.3008 5.48272 14.5173 4.69922 13.5508 4.69922C12.5843 4.69922 11.8008 5.48272 11.8008 6.44922C11.8008 7.41572 12.5843 8.19922 13.5508 8.19922C14.5173 8.19922 15.3008 7.41572 15.3008 6.44922Z" stroke="white" stroke-width="1.5"/>
</svg>
