<svg width="51" height="51" viewBox="0 0 51 51" fill="none" xmlns="http://www.w3.org/2000/svg">
<rect width="51" height="51" rx="8" fill="#F4F4F4"/>
<path d="M25.4993 21.666V29.3327M29.3327 25.4993L21.666 25.4993" stroke="#212121" stroke-width="1.5" stroke-linecap="round" stroke-linejoin="round"/>
<path d="M16.3965 25.5007C16.3965 21.2089 16.3965 19.063 17.7298 17.7298C19.063 16.3965 21.2089 16.3965 25.5007 16.3965C29.7924 16.3965 31.9383 16.3965 33.2715 17.7298C34.6048 19.063 34.6048 21.2089 34.6048 25.5007C34.6048 29.7924 34.6048 31.9383 33.2715 33.2715C31.9383 34.6048 29.7924 34.6048 25.5007 34.6048C21.2089 34.6048 19.063 34.6048 17.7298 33.2715C16.3965 31.9383 16.3965 29.7924 16.3965 25.5007Z" stroke="#212121" stroke-width="1.5"/>
</svg>
