<svg width="22" height="22" viewBox="0 0 22 22" fill="none" xmlns="http://www.w3.org/2000/svg">
<path d="M8.13432 1.5C5.46805 1.56075 3.9107 1.81456 2.84664 2.87493C1.91537 3.80297 1.60406 5.10756 1.5 7.2M13.8657 1.5C16.532 1.56075 18.0893 1.81456 19.1534 2.87493C20.0846 3.80297 20.3959 5.10756 20.5 7.2M13.8657 20.5C16.532 20.4392 18.0893 20.1854 19.1534 19.1251C20.0846 18.197 20.3959 16.8924 20.5 14.8M8.13432 20.5C5.46805 20.4392 3.9107 20.1854 2.84664 19.1251C1.91537 18.197 1.60406 16.8924 1.5 14.8" stroke="#564E13" stroke-width="1.5" stroke-linecap="round" stroke-linejoin="round"/>
<path d="M7 16C8.83846 13.4046 13.1188 13.263 15 16M13.5 8.5C13.5 9.88071 12.3807 11 11 11C9.61929 11 8.5 9.88071 8.5 8.5C8.5 7.11929 9.61929 6 11 6C12.3807 6 13.5 7.11929 13.5 8.5Z" stroke="#564E13" stroke-width="1.5" stroke-linecap="round"/>
</svg>
