<svg width="18" height="22" viewBox="0 0 18 22" fill="none" xmlns="http://www.w3.org/2000/svg">
<path d="M0.5 9C0.5 5.22876 0.5 3.34315 1.7448 2.17157C2.98959 1 4.99306 1 9 1H9.77273C13.0339 1 14.6645 1 15.7969 1.79784C16.1214 2.02643 16.4094 2.29752 16.6523 2.60289C17.5 3.66867 17.5 5.20336 17.5 8.27273V10.8182C17.5 13.7814 17.5 15.2629 17.0311 16.4462C16.2772 18.3486 14.6829 19.8491 12.6616 20.5586C11.4044 21 9.83019 21 6.68182 21C4.88275 21 3.98322 21 3.26478 20.7478C2.10979 20.3424 1.19875 19.4849 0.767964 18.3979C0.5 17.7217 0.5 16.8751 0.5 15.1818V9Z" stroke="#212121" stroke-linejoin="round"/>
<path d="M17.5 11C17.5 12.8409 16.0076 14.3333 14.1667 14.3333C13.5009 14.3333 12.716 14.2167 12.0686 14.3901C11.4935 14.5442 11.0442 14.9935 10.8901 15.5686C10.7167 16.216 10.8333 17.0009 10.8333 17.6667C10.8333 19.5076 9.34095 21 7.5 21" stroke="#212121" stroke-linecap="round" stroke-linejoin="round"/>
<path d="M5 6H12" stroke="#212121" stroke-width="1.5" stroke-linecap="round" stroke-linejoin="round"/>
<path d="M5 10H8" stroke="#212121" stroke-width="1.5" stroke-linecap="round" stroke-linejoin="round"/>
</svg>
