<svg width="30" height="30" viewBox="0 0 30 30" fill="none" xmlns="http://www.w3.org/2000/svg">
<path d="M10.9793 1.66602C7.23716 1.75128 5.05141 2.1075 3.55799 3.59574C2.25094 4.89826 1.81402 6.72926 1.66797 9.66602M19.0233 1.66602C22.7654 1.75128 24.9512 2.1075 26.4446 3.59574C27.7517 4.89826 28.1886 6.72926 28.3346 9.66602M19.0233 28.3327C22.7654 28.2474 24.9512 27.8912 26.4446 26.403C27.7517 25.1004 28.1886 23.2694 28.3346 20.3327M10.9793 28.3327C7.23716 28.2474 5.05141 27.8912 3.55799 26.403C2.25094 25.1004 1.81402 23.2694 1.66797 20.3327" stroke="#212121" stroke-width="1.5" stroke-linecap="round" stroke-linejoin="round"/>
<path d="M21.135 22.1976C21.4279 22.4905 21.9028 22.4905 22.1957 22.1976C22.4886 21.9048 22.4886 21.4299 22.1957 21.137L21.135 22.1976ZM18.9987 19.0007L18.4684 19.531L21.135 22.1976L21.6654 21.6673L22.1957 21.137L19.529 18.4703L18.9987 19.0007ZM20.332 14.334H21.082C21.082 10.6061 18.06 7.58398 14.332 7.58398V8.33398V9.08398C17.2315 9.08398 19.582 11.4345 19.582 14.334H20.332ZM14.332 8.33398V7.58398C10.6041 7.58398 7.58203 10.6061 7.58203 14.334H8.33203H9.08203C9.08203 11.4345 11.4325 9.08398 14.332 9.08398V8.33398ZM8.33203 14.334H7.58203C7.58203 18.0619 10.6041 21.084 14.332 21.084V20.334V19.584C11.4325 19.584 9.08203 17.2335 9.08203 14.334H8.33203ZM14.332 20.334V21.084C18.06 21.084 21.082 18.0619 21.082 14.334H20.332H19.582C19.582 17.2335 17.2315 19.584 14.332 19.584V20.334Z" fill="#212121"/>
</svg>
