<svg width="30" height="30" viewBox="0 0 30 30" fill="none" xmlns="http://www.w3.org/2000/svg">
<path d="M10.9793 1.66602C7.23716 1.75128 5.05141 2.1075 3.55799 3.59574C2.25094 4.89826 1.81402 6.72926 1.66797 9.66602M19.0233 1.66602C22.7654 1.75128 24.9512 2.1075 26.4446 3.59574C27.7517 4.89826 28.1886 6.72926 28.3346 9.66602M19.0233 28.3327C22.7654 28.2474 24.9512 27.8912 26.4446 26.403C27.7517 25.1004 28.1886 23.2694 28.3346 20.3327M10.9793 28.3327C7.23716 28.2474 5.05141 27.8912 3.55799 26.403C2.25094 25.1004 1.81402 23.2694 1.66797 20.3327" stroke="white" stroke-width="2" stroke-linecap="round" stroke-linejoin="round"/>
<path d="M20.9583 22.3744C21.3488 22.7649 21.9819 22.7649 22.3725 22.3744C22.763 21.9839 22.763 21.3507 22.3725 20.9602L20.9583 22.3744ZM18.9987 19.0007L18.2916 19.7078L20.9583 22.3744L21.6654 21.6673L22.3725 20.9602L19.7058 18.2935L18.9987 19.0007ZM20.332 14.334H21.332C21.332 10.468 18.198 7.33398 14.332 7.33398V8.33398V9.33398C17.0935 9.33398 19.332 11.5726 19.332 14.334H20.332ZM14.332 8.33398V7.33398C10.466 7.33398 7.33203 10.468 7.33203 14.334H8.33203H9.33203C9.33203 11.5726 11.5706 9.33398 14.332 9.33398V8.33398ZM8.33203 14.334H7.33203C7.33203 18.2 10.466 21.334 14.332 21.334V20.334V19.334C11.5706 19.334 9.33203 17.0954 9.33203 14.334H8.33203ZM14.332 20.334V21.334C18.198 21.334 21.332 18.2 21.332 14.334H20.332H19.332C19.332 17.0954 17.0935 19.334 14.332 19.334V20.334Z" fill="white"/>
</svg>
