<svg width="22" height="22" viewBox="0 0 22 22" fill="none" xmlns="http://www.w3.org/2000/svg">
<path d="M3.99839 6L2.77959 6.81253C1.90587 7.39501 1.46901 7.68625 1.23227 8.13041C0.99552 8.57457 0.997273 9.09657 1.00078 10.1406C1.005 11.3975 1.01669 12.6782 1.04904 13.9741C1.12578 17.0487 1.16415 18.586 2.29455 19.7164C3.42495 20.8469 4.98301 20.8858 8.09913 20.9637C10.0377 21.0121 11.9591 21.0121 13.8977 20.9637C17.0138 20.8858 18.5719 20.8469 19.7023 19.7164C20.8327 18.586 20.871 17.0487 20.9478 13.9741C20.9801 12.6782 20.9918 11.3975 20.996 10.1406C20.9995 9.09656 21.0013 8.57456 20.7645 8.13041C20.5278 7.68625 20.0909 7.39501 19.2172 6.81253L17.9984 6" stroke="white" stroke-width="1.5" stroke-linejoin="round"/>
<path d="M1 9L7.91302 13.1478C9.41704 14.0502 10.169 14.5014 11 14.5014C11.831 14.5014 12.583 14.0502 14.087 13.1478L21 9" stroke="white" stroke-width="1.5" stroke-linejoin="round"/>
<path d="M4 11V5C4 3.11438 4 2.17157 4.58579 1.58579C5.17157 1 6.11438 1 8 1H14C15.8856 1 16.8284 1 17.4142 1.58579C18 2.17157 18 3.11438 18 5V11" stroke="white" stroke-width="1.5"/>
<path d="M9 9H13M9 5H13" stroke="white" stroke-width="1.5" stroke-linecap="round" stroke-linejoin="round"/>
</svg>
