<svg width="20" height="20" viewBox="0 0 20 20" fill="none" xmlns="http://www.w3.org/2000/svg">
<path d="M5 15L5 11" stroke="#212121" stroke-linecap="round"/>
<path d="M10 15L10 5" stroke="#212121" stroke-linecap="round"/>
<path d="M15 15L15 9" stroke="#212121" stroke-linecap="round"/>
<path d="M0.5 10C0.5 5.52166 0.5 3.28249 1.89124 1.89124C3.28249 0.5 5.52166 0.5 10 0.5C14.4783 0.5 16.7175 0.5 18.1088 1.89124C19.5 3.28249 19.5 5.52166 19.5 10C19.5 14.4783 19.5 16.7175 18.1088 18.1088C16.7175 19.5 14.4783 19.5 10 19.5C5.52166 19.5 3.28249 19.5 1.89124 18.1088C0.5 16.7175 0.5 14.4783 0.5 10Z" stroke="#212121" stroke-linejoin="round"/>
</svg>
