<svg width="22" height="19" viewBox="0 0 22 19" fill="none" xmlns="http://www.w3.org/2000/svg">
<path d="M17.6161 17H18.1063C19.2561 17 20.1707 16.4761 20.9919 15.7436C23.078 13.8826 18.1741 12 16.5 12M14.5 2.06877C14.7271 2.02373 14.9629 2 15.2048 2C17.0247 2 18.5 3.34315 18.5 5C18.5 6.65685 17.0247 8 15.2048 8C14.9629 8 14.7271 7.97627 14.5 7.93123" stroke="#212121" stroke-linecap="round"/>
<path d="M3.48131 13.1112C2.30234 13.743 -0.788863 15.0331 1.09388 16.6474C2.01359 17.436 3.03791 18 4.32572 18H11.6743C12.9621 18 13.9864 17.436 14.9061 16.6474C16.7889 15.0331 13.6977 13.743 12.5187 13.1112C9.75401 11.6296 6.24599 11.6296 3.48131 13.1112Z" stroke="#212121"/>
<path d="M12 4.5C12 6.70914 10.2091 8.5 8 8.5C5.79086 8.5 4 6.70914 4 4.5C4 2.29086 5.79086 0.5 8 0.5C10.2091 0.5 12 2.29086 12 4.5Z" stroke="#212121"/>
</svg>
