<svg width="22" height="22" viewBox="0 0 22 22" fill="none" xmlns="http://www.w3.org/2000/svg">
<path d="M14 6.5C14 6.5 14.5 6.5 15 7.5C15 7.5 16.5882 5 18 4.5" stroke="#212121" stroke-linecap="round" stroke-linejoin="round"/>
<path d="M21 6C21 8.76142 18.7614 11 16 11C13.2386 11 11 8.76142 11 6C11 3.23858 13.2386 1 16 1C18.7614 1 21 3.23858 21 6Z" stroke="#212121" stroke-linecap="round"/>
<path d="M1 9H1.5H1ZM9.47059 1.5C9.74673 1.5 9.97059 1.27614 9.97059 1C9.97059 0.723858 9.74673 0.5 9.47059 0.5V1.5ZM9.47059 21V21.5V21ZM1 13H0.5H1ZM10.5294 21V20.5V21ZM17.7595 19.8284L18.1028 20.1919L17.7595 19.8284ZM19.4999 13.4188C19.5001 13.1426 19.2763 12.9186 19.0002 12.9185C18.724 12.9184 18.5001 13.1421 18.4999 13.4183L19.4999 13.4188ZM10.5294 21V20.5H9.47059V21V21.5H10.5294V21ZM1 13H1.5L1.5 9H1H0.5L0.5 13H1ZM1 9H1.5C1.5 7.09944 1.50119 5.72723 1.65007 4.68138C1.79647 3.65298 2.07685 3.01387 2.5838 2.53508L2.24049 2.17157L1.89718 1.80807C1.16364 2.50085 0.823776 3.39034 0.660052 4.54045C0.498813 5.6731 0.5 7.12932 0.5 9H1ZM9.47059 1V0.5C7.48742 0.5 5.95251 0.499051 4.76034 0.650429C3.55658 0.803279 2.62668 1.1191 1.89718 1.80807L2.24049 2.17157L2.5838 2.53508C3.09479 2.05248 3.7834 1.78251 4.8863 1.64246C6.00079 1.50095 7.46068 1.5 9.47059 1.5V1ZM9.47059 21V20.5C7.46068 20.5 6.00079 20.4991 4.8863 20.3575C3.7834 20.2175 3.09479 19.9475 2.5838 19.4649L2.24049 19.8284L1.89718 20.1919C2.62667 20.8809 3.55658 21.1967 4.76034 21.3496C5.95251 21.5009 7.48742 21.5 9.47059 21.5V21ZM1 13H0.5C0.5 14.8707 0.498812 16.3269 0.660051 17.4596C0.823775 18.6097 1.16364 19.4992 1.89718 20.1919L2.24049 19.8284L2.5838 19.4649C2.07685 18.9861 1.79647 18.347 1.65007 17.3186C1.50119 16.2728 1.5 14.9006 1.5 13H1ZM10.5294 21V21.5C12.5126 21.5 14.0475 21.5009 15.2397 21.3496C16.4434 21.1967 17.3733 20.8809 18.1028 20.1919L17.7595 19.8284L17.4162 19.4649C16.9052 19.9475 16.2166 20.2175 15.1137 20.3575C13.9992 20.4991 12.5393 20.5 10.5294 20.5V21ZM18.9999 13.4185L18.4999 13.4183C18.4991 15.177 18.4862 16.455 18.3328 17.4334C18.1821 18.3945 17.9044 19.0038 17.4162 19.4649L17.7595 19.8284L18.1028 20.1919C18.8083 19.5256 19.15 18.677 19.3207 17.5883C19.4886 16.5172 19.4991 15.1539 19.4999 13.4188L18.9999 13.4185Z" fill="#212121"/>
<path d="M6 12H10" stroke="#212121" stroke-linecap="round"/>
<path d="M6 16L14 16" stroke="#212121" stroke-linecap="round"/>
</svg>
