<svg width="21" height="20" viewBox="0 0 21 20" fill="none" xmlns="http://www.w3.org/2000/svg">
<path d="M5.10156 9.92298C10.1742 0.468695 16.4906 0.359674 19.0146 1.48695C20.1419 4.01105 20.0329 10.3274 10.5786 15.4C10.4806 14.8364 9.93532 13.3599 8.5385 11.9631C7.14168 10.5663 5.6652 10.021 5.10156 9.92298Z" stroke="white" stroke-width="1.5" stroke-linecap="round" stroke-linejoin="round"/>
<path d="M11.8516 14.95C13.6901 15.85 13.8864 17.4638 14.141 19C14.141 19 17.9917 16.1535 15.5286 12.25" stroke="white" stroke-width="1.5" stroke-linecap="round" stroke-linejoin="round"/>
<path d="M5.54996 8.72646C4.64996 6.88795 3.03615 6.69166 1.5 6.43697C1.5 6.43697 4.3465 2.58633 8.24997 5.04944" stroke="white" stroke-width="1.5" stroke-linecap="round" stroke-linejoin="round"/>
<path d="M4.51808 12.912C4.00625 13.4238 3.13613 14.9081 3.75033 16.7507C5.59293 17.3649 7.07725 16.4948 7.58909 15.983" stroke="white" stroke-width="1.5" stroke-linecap="round" stroke-linejoin="round"/>
<path d="M15.8008 6.44922C15.8008 5.48272 15.0173 4.69922 14.0508 4.69922C13.0843 4.69922 12.3008 5.48272 12.3008 6.44922C12.3008 7.41572 13.0843 8.19922 14.0508 8.19922C15.0173 8.19922 15.8008 7.41572 15.8008 6.44922Z" stroke="white" stroke-width="1.5"/>
</svg>
