<svg width="973" height="261" viewBox="0 0 973 261" fill="none" xmlns="http://www.w3.org/2000/svg">
<rect x="574" y="27" width="284" height="51" rx="12" fill="#E6FFDD"/>
<rect x="574" y="88" width="207" height="51" rx="12" fill="#F4F4F4"/>
<rect x="574" y="149" width="39" height="51" rx="12" fill="#F4F4F4"/>
<rect x="574" y="210" width="23" height="51" rx="11.5" fill="#F4F4F4"/>
<rect y="27" width="563" height="51" rx="12" fill="#D2F0FF"/>
<path d="M20.128 60.24V56.608H20.992C21.3973 56.4693 21.7707 56.2293 22.112 55.888C22.464 55.5467 22.6773 55.136 22.752 54.656L24 46.8H34.16V56.608H35.968V60.24H34.448V58H21.632V60.24H20.128ZM23.136 56.592H32.64V48.208H25.296L24.256 54.72C24.1707 55.1787 24.0213 55.5627 23.808 55.872C23.6053 56.1813 23.3813 56.3947 23.136 56.512V56.592ZM40.0204 58.16C39.519 58.16 39.071 58.064 38.6764 57.872C38.2924 57.6693 37.9884 57.3973 37.7644 57.056C37.551 56.704 37.4444 56.3147 37.4444 55.888V55.488C37.4444 55.0613 37.551 54.672 37.7644 54.32C37.9884 53.968 38.2924 53.696 38.6764 53.504C39.071 53.3013 39.519 53.2 40.0204 53.2H45.2044V52.608C45.2044 52.2027 45.0764 51.8987 44.8204 51.696C44.575 51.4827 44.207 51.376 43.7164 51.376H38.3724V50H43.9884C44.511 50 44.9697 50.1013 45.3644 50.304C45.7697 50.496 46.0844 50.768 46.3084 51.12C46.5324 51.472 46.6444 51.8613 46.6444 52.288V58H45.6364L45.3484 57.168H45.2524C44.7404 57.8293 43.9457 58.16 42.8684 58.16H40.0204ZM43.0924 56.8C43.7644 56.8 44.2817 56.6613 44.6444 56.384C45.0177 56.096 45.2044 55.7013 45.2044 55.2V54.496H40.1484C39.7857 54.496 39.4817 54.5867 39.2364 54.768C39.0017 54.9493 38.8844 55.1947 38.8844 55.504V55.792C38.8844 56.1013 39.0017 56.3467 39.2364 56.528C39.4817 56.7093 39.7857 56.8 40.1484 56.8H43.0924Z" fill="#212121"/>
<rect x="573.5" y="27.5" width="399" height="50" rx="11.5" stroke="#F4F4F4"/>
<path d="M593.928 58V56.592H601.592C602.701 56.592 603.256 56.1227 603.256 55.184V54.384C603.256 53.9147 603.117 53.5627 602.84 53.328C602.563 53.0827 602.147 52.96 601.592 52.96H596.728V51.68L601.688 48.288V48.208H594.392L593.928 47.728V46.8H604.312V48.08L599.288 51.52V51.6H601.816C602.755 51.6 603.48 51.8347 603.992 52.304C604.504 52.7627 604.76 53.3813 604.76 54.16V55.44C604.76 56.2187 604.504 56.8427 603.992 57.312C603.48 57.7707 602.755 58 601.816 58H593.928ZM610.179 58.16C609.241 58.16 608.51 57.9307 607.987 57.472C607.475 57.0027 607.219 56.3787 607.219 55.6V49.2C607.219 48.4213 607.475 47.8027 607.987 47.344C608.51 46.8747 609.241 46.64 610.179 46.64H615.747C616.686 46.64 617.411 46.8747 617.923 47.344C618.446 47.8027 618.707 48.4213 618.707 49.2V55.6C618.707 56.3787 618.446 57.0027 617.923 57.472C617.411 57.9307 616.686 58.16 615.747 58.16H610.179ZM615.523 56.752C616.633 56.752 617.187 56.2827 617.187 55.344V49.456C617.187 48.5173 616.633 48.048 615.523 48.048H610.403C609.294 48.048 608.739 48.5173 608.739 49.456V55.344C608.739 56.2827 609.294 56.752 610.403 56.752H615.523ZM624.383 58.16C623.444 58.16 622.713 57.9307 622.191 57.472C621.679 57.0027 621.423 56.3787 621.423 55.6V49.2C621.423 48.4213 621.679 47.8027 622.191 47.344C622.713 46.8747 623.444 46.64 624.383 46.64H629.951C630.889 46.64 631.615 46.8747 632.127 47.344C632.649 47.8027 632.911 48.4213 632.911 49.2V55.6C632.911 56.3787 632.649 57.0027 632.127 57.472C631.615 57.9307 630.889 58.16 629.951 58.16H624.383ZM629.727 56.752C630.836 56.752 631.391 56.2827 631.391 55.344V49.456C631.391 48.5173 630.836 48.048 629.727 48.048H624.607C623.497 48.048 622.943 48.5173 622.943 49.456V55.344C622.943 56.2827 623.497 56.752 624.607 56.752H629.727Z" fill="#212121"/>
<rect x="573.5" y="88.5" width="399" height="50" rx="11.5" stroke="#F4F4F4"/>
<path d="M593.96 119V117.672L601.56 113.384C602.147 113.053 602.568 112.749 602.824 112.472C603.08 112.195 603.208 111.832 603.208 111.384V110.616C603.208 109.677 602.653 109.208 601.544 109.208H594.632L594.168 108.728V107.8H601.768C602.707 107.8 603.432 108.035 603.944 108.504C604.467 108.963 604.728 109.581 604.728 110.36V111.592C604.728 112.157 604.547 112.664 604.184 113.112C603.832 113.56 603.261 114.008 602.472 114.456L597.08 117.512V117.592H604.728V119H593.96ZM615.538 119H607.17V117.592H610.594V110.216H607.266V108.84H610.594V107.752H612.114V117.592H615.538V119ZM620.023 119.16C619.084 119.16 618.354 118.931 617.831 118.472C617.319 118.003 617.063 117.379 617.063 116.6V110.2C617.063 109.421 617.319 108.803 617.831 108.344C618.354 107.875 619.084 107.64 620.023 107.64H625.591C626.53 107.64 627.255 107.875 627.767 108.344C628.29 108.803 628.551 109.421 628.551 110.2V116.6C628.551 117.379 628.29 118.003 627.767 118.472C627.255 118.931 626.53 119.16 625.591 119.16H620.023ZM625.367 117.752C626.476 117.752 627.031 117.283 627.031 116.344V110.456C627.031 109.517 626.476 109.048 625.367 109.048H620.247C619.138 109.048 618.583 109.517 618.583 110.456V116.344C618.583 117.283 619.138 117.752 620.247 117.752H625.367Z" fill="#212121"/>
<rect x="573.5" y="149.5" width="399" height="50" rx="11.5" stroke="#F4F4F4"/>
<path d="M603.88 180H602.36V177.424H593.56V176.064L599.176 168.8H600.488V169.504L595.48 175.936V176.016H602.36V172.656H603.88V176.016H606.28V177.424H603.88V180Z" fill="#212121"/>
<rect x="573.5" y="210.5" width="399" height="50" rx="11.5" stroke="#F4F4F4"/>
<path d="M602.616 241H594.248V239.592H597.672V232.216H594.344V230.84H597.672V229.752H599.192V239.592H602.616V241Z" fill="#212121"/>
<rect y="88" width="563" height="51" rx="12" fill="#D2F0FF"/>
<path d="M23.168 119H21.648V107.8H23.168V112.552H32.64V107.8H34.16V119H32.64V113.992H23.168V119ZM39.6045 119C39.0818 119 38.6178 118.904 38.2125 118.712C37.8072 118.509 37.4925 118.237 37.2685 117.896C37.0445 117.544 36.9325 117.155 36.9325 116.728V113.128C36.9325 112.701 37.0445 112.312 37.2685 111.96C37.4925 111.608 37.8072 111.336 38.2125 111.144C38.6178 110.941 39.0818 110.84 39.6045 110.84H43.8285C44.3512 110.84 44.8152 110.941 45.2205 111.144C45.6258 111.336 45.9405 111.608 46.1645 111.96C46.3885 112.312 46.5005 112.701 46.5005 113.128V115.752H38.3725V116.408C38.3725 116.803 38.5005 117.107 38.7565 117.32C39.0125 117.533 39.3858 117.64 39.8765 117.64H46.1005V119H39.6045ZM38.3725 114.424H45.0605V113.448C45.0605 113.053 44.9325 112.749 44.6765 112.536C44.4205 112.323 44.0472 112.216 43.5565 112.216H39.8765C39.3858 112.216 39.0125 112.323 38.7565 112.536C38.5005 112.749 38.3725 113.053 38.3725 113.448V114.424ZM53.1986 119H51.7586V112.376H47.7906V111H57.1506V111.912L56.6866 112.376H53.1986V119Z" fill="#212121"/>
<rect y="149" width="563" height="51" rx="12" fill="#D2F0FF"/>
<path d="M23.168 180H21.648V168.8H23.168V173.552H32.64V168.8H34.16V180H32.64V174.992H23.168V180ZM39.6045 180C39.0818 180 38.6178 179.904 38.2125 179.712C37.8072 179.509 37.4925 179.237 37.2685 178.896C37.0445 178.544 36.9325 178.155 36.9325 177.728V174.128C36.9325 173.701 37.0445 173.312 37.2685 172.96C37.4925 172.608 37.8072 172.336 38.2125 172.144C38.6178 171.941 39.0818 171.84 39.6045 171.84H43.8285C44.3512 171.84 44.8152 171.941 45.2205 172.144C45.6258 172.336 45.9405 172.608 46.1645 172.96C46.3885 173.312 46.5005 173.701 46.5005 174.128V176.752H38.3725V177.408C38.3725 177.803 38.5005 178.107 38.7565 178.32C39.0125 178.533 39.3858 178.64 39.8765 178.64H46.1005V180H39.6045ZM38.3725 175.424H45.0605V174.448C45.0605 174.053 44.9325 173.749 44.6765 173.536C44.4205 173.323 44.0472 173.216 43.5565 173.216H39.8765C39.3858 173.216 39.0125 173.323 38.7565 173.536C38.5005 173.749 38.3725 174.053 38.3725 174.448V175.424ZM53.9461 180H52.5061V179.216L53.8021 172H55.4021L58.9221 177.216H59.0341L62.5541 172H64.1541L65.4501 179.216V180H64.0101L63.0181 174H62.9221L59.6261 178.88H58.3301L55.0341 174H54.9381L53.9461 180ZM70.167 180.16C69.6443 180.16 69.1803 180.064 68.775 179.872C68.3697 179.669 68.055 179.397 67.831 179.056C67.607 178.704 67.495 178.315 67.495 177.888V174.128C67.495 173.701 67.607 173.312 67.831 172.96C68.055 172.608 68.3697 172.336 68.775 172.144C69.1803 171.941 69.6443 171.84 70.167 171.84H74.551C75.0737 171.84 75.5377 171.941 75.943 172.144C76.3483 172.336 76.663 172.608 76.887 172.96C77.111 173.312 77.223 173.701 77.223 174.128V177.888C77.223 178.315 77.111 178.704 76.887 179.056C76.663 179.397 76.3483 179.669 75.943 179.872C75.5377 180.064 75.0737 180.16 74.551 180.16H70.167ZM74.279 178.8C74.7697 178.8 75.143 178.693 75.399 178.48C75.655 178.267 75.783 177.963 75.783 177.568V174.448C75.783 174.053 75.655 173.749 75.399 173.536C75.143 173.323 74.7697 173.216 74.279 173.216H70.439C69.9483 173.216 69.575 173.323 69.319 173.536C69.063 173.749 68.935 174.053 68.935 174.448V177.568C68.935 177.963 69.063 178.267 69.319 178.48C69.575 178.693 69.9483 178.8 70.439 178.8H74.279ZM81.1118 180H79.6718V172H87.1918V172.944L86.7598 173.376H81.1118V180ZM96.6996 172H97.9956V172.784L93.7396 180.288C93.4303 180.843 93.137 181.285 92.8596 181.616C92.5823 181.957 92.2356 182.224 91.8196 182.416C91.4143 182.619 90.9023 182.72 90.2836 182.72H89.1316V181.36H90.1556C90.977 181.36 91.6543 180.928 92.1876 180.064L92.3796 179.76L88.0436 172.784V172H89.3716L93.1796 178.24H93.2756L96.6996 172ZM106.276 180.16C105.754 180.16 105.29 180.064 104.884 179.872C104.479 179.669 104.164 179.397 103.94 179.056C103.716 178.704 103.604 178.315 103.604 177.888V174.128C103.604 173.701 103.716 173.312 103.94 172.96C104.164 172.608 104.479 172.336 104.884 172.144C105.29 171.941 105.754 171.84 106.276 171.84H110.66C111.183 171.84 111.647 171.941 112.052 172.144C112.458 172.336 112.772 172.608 112.996 172.96C113.22 173.312 113.332 173.701 113.332 174.128V177.888C113.332 178.315 113.22 178.704 112.996 179.056C112.772 179.397 112.458 179.669 112.052 179.872C111.647 180.064 111.183 180.16 110.66 180.16H106.276ZM110.388 178.8C110.879 178.8 111.252 178.693 111.508 178.48C111.764 178.267 111.892 177.963 111.892 177.568V174.448C111.892 174.053 111.764 173.749 111.508 173.536C111.252 173.323 110.879 173.216 110.388 173.216H106.548C106.058 173.216 105.684 173.323 105.428 173.536C105.172 173.749 105.044 174.053 105.044 174.448V177.568C105.044 177.963 105.172 178.267 105.428 178.48C105.684 178.693 106.058 178.8 106.548 178.8H110.388ZM120.027 180H118.587V173.376H114.619V172H123.979V172.912L123.515 173.376H120.027V180ZM125.703 180V172H132.007C132.796 172 133.426 172.197 133.895 172.592C134.375 172.987 134.615 173.499 134.615 174.128V174.4C134.615 174.773 134.498 175.093 134.263 175.36C134.039 175.616 133.756 175.792 133.415 175.888V175.968C133.767 176.043 134.082 176.229 134.359 176.528C134.636 176.827 134.775 177.173 134.775 177.568V177.92C134.775 178.528 134.54 179.029 134.071 179.424C133.612 179.808 132.983 180 132.183 180H125.703ZM131.767 175.36C132.215 175.36 132.562 175.275 132.807 175.104C133.052 174.923 133.175 174.693 133.175 174.416V174.24C133.175 173.952 133.052 173.723 132.807 173.552C132.572 173.381 132.242 173.296 131.815 173.296H127.143V175.36H131.767ZM131.943 178.704C132.391 178.704 132.732 178.619 132.967 178.448C133.212 178.277 133.335 178.048 133.335 177.76V177.584C133.335 177.307 133.218 177.083 132.983 176.912C132.748 176.731 132.418 176.64 131.991 176.64H127.143V178.704H131.943ZM139.417 180C138.894 180 138.43 179.904 138.025 179.712C137.62 179.509 137.305 179.237 137.081 178.896C136.857 178.544 136.745 178.155 136.745 177.728V174.128C136.745 173.701 136.857 173.312 137.081 172.96C137.305 172.608 137.62 172.336 138.025 172.144C138.43 171.941 138.894 171.84 139.417 171.84H143.641C144.164 171.84 144.628 171.941 145.033 172.144C145.438 172.336 145.753 172.608 145.977 172.96C146.201 173.312 146.313 173.701 146.313 174.128V176.752H138.185V177.408C138.185 177.803 138.313 178.107 138.569 178.32C138.825 178.533 139.198 178.64 139.689 178.64H145.913V180H139.417ZM138.185 175.424H144.873V174.448C144.873 174.053 144.745 173.749 144.489 173.536C144.233 173.323 143.86 173.216 143.369 173.216H139.689C139.198 173.216 138.825 173.323 138.569 173.536C138.313 173.749 138.185 174.053 138.185 174.448V175.424ZM153.011 180H151.571V173.376H147.603V172H156.963V172.912L156.499 173.376H153.011V180ZM160.127 180H158.687V172H160.127V176.8L160.063 178.144H160.159L166.799 172H168.239V180H166.799V175.168L166.879 173.872H166.767L160.127 180ZM175.371 180H173.931V173.376H169.963V172H179.323V172.912L178.859 173.376H175.371V180ZM181.047 180V172H182.487V174.576H187.239C187.996 174.576 188.609 174.789 189.079 175.216C189.559 175.632 189.799 176.165 189.799 176.816V177.76C189.799 178.411 189.559 178.949 189.079 179.376C188.609 179.792 187.996 180 187.239 180H181.047ZM186.999 178.64C187.447 178.64 187.783 178.549 188.007 178.368C188.241 178.187 188.359 177.931 188.359 177.6V176.992C188.359 176.661 188.241 176.405 188.007 176.224C187.783 176.043 187.447 175.952 186.999 175.952H182.487V178.64H186.999Z" fill="#212121"/>
<rect y="210" width="563" height="51" rx="12" fill="#D2F0FF"/>
<path d="M20.128 243.24V239.608H20.992C21.3973 239.469 21.7707 239.229 22.112 238.888C22.464 238.547 22.6773 238.136 22.752 237.656L24 229.8H34.16V239.608H35.968V243.24H34.448V241H21.632V243.24H20.128ZM23.136 239.592H32.64V231.208H25.296L24.256 237.72C24.1707 238.179 24.0213 238.563 23.808 238.872C23.6053 239.181 23.3813 239.395 23.136 239.512V239.592ZM37.8124 243.72V233H38.8204L39.1084 233.848H39.2044C39.727 233.176 40.5217 232.84 41.5884 232.84H44.6604C45.183 232.84 45.647 232.941 46.0524 233.144C46.4577 233.336 46.7724 233.608 46.9964 233.96C47.2204 234.312 47.3324 234.701 47.3324 235.128V238.728C47.3324 239.155 47.2204 239.544 46.9964 239.896C46.7724 240.237 46.4577 240.509 46.0524 240.712C45.647 240.904 45.183 241 44.6604 241H39.2524V243.72H37.8124ZM44.3884 239.64C44.879 239.64 45.2524 239.533 45.5084 239.32C45.7644 239.107 45.8924 238.803 45.8924 238.408V235.448C45.8924 235.053 45.7644 234.749 45.5084 234.536C45.2524 234.323 44.879 234.216 44.3884 234.216H41.3644C40.703 234.216 40.1857 234.355 39.8124 234.632C39.439 234.909 39.2524 235.299 39.2524 235.8V239.64H44.3884ZM57.4028 233H58.6988V233.784L54.4428 241.288C54.1334 241.843 53.8401 242.285 53.5628 242.616C53.2854 242.957 52.9388 243.224 52.5228 243.416C52.1174 243.619 51.6054 243.72 50.9868 243.72H49.8348V242.36H50.8588C51.6801 242.36 52.3574 241.928 52.8908 241.064L53.0828 240.76L48.7467 233.784V233H50.0748L53.8828 239.24H53.9788L57.4028 233ZM62.0024 241H60.5624V233H68.0824V233.944L67.6504 234.376H62.0024V241ZM71.9639 241.16C71.4412 241.16 70.9772 241.064 70.5719 240.872C70.1665 240.669 69.8519 240.397 69.6279 240.056C69.4039 239.704 69.2919 239.315 69.2919 238.888V235.128C69.2919 234.701 69.4039 234.312 69.6279 233.96C69.8519 233.608 70.1665 233.336 70.5719 233.144C70.9772 232.941 71.4412 232.84 71.9639 232.84H76.3479C76.8705 232.84 77.3345 232.941 77.7399 233.144C78.1452 233.336 78.4599 233.608 78.6839 233.96C78.9079 234.312 79.0199 234.701 79.0199 235.128V238.888C79.0199 239.315 78.9079 239.704 78.6839 240.056C78.4599 240.397 78.1452 240.669 77.7399 240.872C77.3345 241.064 76.8705 241.16 76.3479 241.16H71.9639ZM76.0759 239.8C76.5665 239.8 76.9399 239.693 77.1959 239.48C77.4519 239.267 77.5799 238.963 77.5799 238.568V235.448C77.5799 235.053 77.4519 234.749 77.1959 234.536C76.9399 234.323 76.5665 234.216 76.0759 234.216H72.2359C71.7452 234.216 71.3719 234.323 71.1159 234.536C70.8599 234.749 70.7319 235.053 70.7319 235.448V238.568C70.7319 238.963 70.8599 239.267 71.1159 239.48C71.3719 239.693 71.7452 239.8 72.2359 239.8H76.0759ZM83.9326 241C83.41 241 82.946 240.904 82.5406 240.712C82.1353 240.509 81.8206 240.237 81.5966 239.896C81.3726 239.544 81.2606 239.155 81.2606 238.728V235.128C81.2606 234.701 81.3726 234.312 81.5966 233.96C81.8206 233.608 82.1353 233.336 82.5406 233.144C82.946 232.941 83.41 232.84 83.9326 232.84H88.1566C88.6793 232.84 89.1433 232.941 89.5486 233.144C89.954 233.336 90.2686 233.608 90.4926 233.96C90.7166 234.312 90.8286 234.701 90.8286 235.128V237.752H82.7006V238.408C82.7006 238.803 82.8286 239.107 83.0846 239.32C83.3406 239.533 83.714 239.64 84.2046 239.64H90.4286V241H83.9326ZM82.7006 236.424H89.3886V235.448C89.3886 235.053 89.2606 234.749 89.0046 234.536C88.7486 234.323 88.3753 234.216 87.8846 234.216H84.2046C83.714 234.216 83.3406 234.323 83.0846 234.536C82.8286 234.749 82.7006 235.053 82.7006 235.448V236.424Z" fill="#212121"/>
<path d="M1.76 15V3.8H10.4C11.2747 3.8 11.9733 4.03467 12.496 4.504C13.0187 4.96267 13.28 5.58133 13.28 6.36V7C13.28 7.65067 13.1467 8.14133 12.88 8.472C12.6133 8.792 12.2827 9.00533 11.888 9.112V9.192C12.2933 9.24533 12.6507 9.45867 12.96 9.832C13.28 10.1947 13.44 10.7173 13.44 11.4V12.44C13.44 13.2187 13.1787 13.8427 12.656 14.312C12.1333 14.7707 11.4347 15 10.56 15H1.76ZM10.32 8.68C10.928 8.68 11.3973 8.54667 11.728 8.28C12.0693 8.00267 12.24 7.60267 12.24 7.08V6.44C12.24 5.91733 12.0693 5.52267 11.728 5.256C11.3973 4.97867 10.928 4.84 10.32 4.84H2.8V8.68H10.32ZM10.48 13.96C11.088 13.96 11.5573 13.8267 11.888 13.56C12.2293 13.2827 12.4 12.8827 12.4 12.36V11.32C12.4 10.7973 12.2293 10.4027 11.888 10.136C11.5573 9.85867 11.088 9.72 10.48 9.72H2.8V13.96H10.48ZM18.2388 15.16C17.5241 15.16 16.9321 14.952 16.4628 14.536C15.9934 14.1093 15.7588 13.5707 15.7588 12.92V12.52C15.7588 11.8693 15.9934 11.336 16.4628 10.92C16.9321 10.4933 17.5241 10.28 18.2388 10.28H23.5188V9.48C23.5188 9.05333 23.3748 8.72267 23.0868 8.488C22.7988 8.24267 22.3828 8.12 21.8388 8.12H16.6388V7.08H21.9188C22.6868 7.08 23.3161 7.29333 23.8068 7.72C24.3081 8.136 24.5588 8.66933 24.5588 9.32V15H23.8388L23.5828 14.2H23.4868C23.2948 14.4667 23.0121 14.696 22.6388 14.888C22.2654 15.0693 21.7748 15.16 21.1668 15.16H18.2388ZM21.3268 14.12C22.0094 14.12 22.5428 13.9707 22.9268 13.672C23.3214 13.3733 23.5188 12.9627 23.5188 12.44V11.32H18.2388C17.8334 11.32 17.4921 11.4373 17.2148 11.672C16.9374 11.896 16.7988 12.1947 16.7988 12.568V12.872C16.7988 13.2453 16.9374 13.5493 17.2148 13.784C17.4921 14.008 17.8334 14.12 18.2388 14.12H21.3268ZM27.3619 17.72V7.08H28.0819L28.3379 7.88H28.4339C28.6259 7.61333 28.9085 7.38933 29.2819 7.208C29.6552 7.016 30.1459 6.92 30.7539 6.92H33.7619C34.5299 6.92 35.1592 7.13333 35.6499 7.56C36.1512 7.976 36.4019 8.50933 36.4019 9.16V12.76C36.4019 13.4107 36.1512 13.9493 35.6499 14.376C35.1592 14.792 34.5299 15 33.7619 15H28.4019V17.72H27.3619ZM33.6819 13.96C34.2259 13.96 34.6419 13.8427 34.9299 13.608C35.2179 13.3627 35.3619 13.0267 35.3619 12.6V9.32C35.3619 8.89333 35.2179 8.56267 34.9299 8.328C34.6419 8.08267 34.2259 7.96 33.6819 7.96H30.5939C29.9112 7.96 29.3725 8.10933 28.9779 8.408C28.5939 8.70667 28.4019 9.11733 28.4019 9.64V13.96H33.6819ZM40.0894 15H39.0494V7.08H40.0894V13.528H40.1854L46.9694 7.08H48.0094V15H46.9694V8.552H46.8574L40.0894 15ZM52.9731 15.16C52.2585 15.16 51.6665 14.952 51.1971 14.536C50.7278 14.1093 50.4931 13.5707 50.4931 12.92V12.52C50.4931 11.8693 50.7278 11.336 51.1971 10.92C51.6665 10.4933 52.2585 10.28 52.9731 10.28H58.2531V9.48C58.2531 9.05333 58.1091 8.72267 57.8211 8.488C57.5331 8.24267 57.1171 8.12 56.5731 8.12H51.3731V7.08H56.6531C57.4211 7.08 58.0505 7.29333 58.5411 7.72C59.0425 8.136 59.2931 8.66933 59.2931 9.32V15H58.5731L58.3171 14.2H58.2211C58.0291 14.4667 57.7465 14.696 57.3731 14.888C56.9998 15.0693 56.5091 15.16 55.9011 15.16H52.9731ZM56.0611 14.12C56.7438 14.12 57.2771 13.9707 57.6611 13.672C58.0558 13.3733 58.2531 12.9627 58.2531 12.44V11.32H52.9731C52.5678 11.32 52.2265 11.4373 51.9491 11.672C51.6718 11.896 51.5331 12.1947 51.5331 12.568V12.872C51.5331 13.2453 51.6718 13.5493 51.9491 13.784C52.2265 14.008 52.5678 14.12 52.9731 14.12H56.0611ZM63.1363 15H62.0963V7.08H63.1363V10.44H69.6962V7.08H70.7363V15H69.6962V11.48H63.1363V15ZM77.6119 15H76.5719V8.12H72.5719V7.08H81.6119V7.8L81.2919 8.12H77.6119V15ZM89.6994 15.16C88.9314 15.16 88.2967 14.952 87.7954 14.536C87.3047 14.1093 87.0594 13.5707 87.0594 12.92V9.16C87.0594 8.50933 87.3047 7.976 87.7954 7.56C88.2967 7.13333 88.9314 6.92 89.6994 6.92H93.6994C94.4674 6.92 95.0967 7.13333 95.5874 7.56C96.0887 7.976 96.3394 8.50933 96.3394 9.16V12.92C96.3394 13.5707 96.0887 14.1093 95.5874 14.536C95.0967 14.952 94.4674 15.16 93.6994 15.16H89.6994ZM93.6194 14.12C94.1634 14.12 94.5794 14.0027 94.8674 13.768C95.1554 13.5227 95.2994 13.1867 95.2994 12.76V9.32C95.2994 8.89333 95.1554 8.56267 94.8674 8.328C94.5794 8.08267 94.1634 7.96 93.6194 7.96H89.7794C89.2354 7.96 88.8194 8.08267 88.5314 8.328C88.2434 8.56267 88.0994 8.89333 88.0994 9.32V12.76C88.0994 13.1867 88.2434 13.5227 88.5314 13.768C88.8194 14.0027 89.2354 14.12 89.7794 14.12H93.6194ZM102.753 15H101.713V8.12H97.7125V7.08H106.753V7.8L106.433 8.12H102.753V15ZM108.596 15V7.08H114.436C115.194 7.08 115.807 7.27733 116.276 7.672C116.756 8.056 116.996 8.552 116.996 9.16V9.4C116.996 9.77333 116.874 10.0987 116.628 10.376C116.383 10.6427 116.09 10.824 115.748 10.92V11C116.111 11.0853 116.436 11.2773 116.724 11.576C117.012 11.864 117.156 12.216 117.156 12.632V13C117.156 13.352 117.055 13.6827 116.852 13.992C116.65 14.3013 116.351 14.5467 115.956 14.728C115.572 14.9093 115.124 15 114.612 15H108.596ZM114.292 10.52C114.836 10.52 115.247 10.4187 115.524 10.216C115.812 10.0027 115.956 9.73067 115.956 9.4V9.24C115.956 8.90933 115.818 8.64267 115.54 8.44C115.274 8.22667 114.884 8.12 114.372 8.12H109.636V10.52H114.292ZM114.468 13.96C115.012 13.96 115.423 13.8587 115.7 13.656C115.978 13.4533 116.116 13.1813 116.116 12.84V12.68C116.116 12.3493 115.983 12.0827 115.716 11.88C115.45 11.6667 115.06 11.56 114.548 11.56H109.636V13.96H114.468ZM121.871 15C121.103 15 120.469 14.792 119.967 14.376C119.477 13.9493 119.231 13.4107 119.231 12.76V9.16C119.231 8.50933 119.477 7.976 119.967 7.56C120.469 7.13333 121.103 6.92 121.871 6.92H125.711C126.479 6.92 127.109 7.13333 127.599 7.56C128.101 7.976 128.351 8.50933 128.351 9.16V11.72H120.271V12.6C120.271 13.0267 120.415 13.3627 120.703 13.608C120.991 13.8427 121.407 13.96 121.951 13.96H127.951V15H121.871ZM120.271 10.68H127.311V9.32C127.311 8.89333 127.167 8.56267 126.879 8.328C126.591 8.08267 126.175 7.96 125.631 7.96H121.951C121.407 7.96 120.991 8.08267 120.703 8.328C120.415 8.56267 120.271 8.89333 120.271 9.32V10.68ZM134.753 15H133.713V8.12H129.713V7.08H138.753V7.8L138.433 8.12H134.753V15ZM142.442 15.16C141.727 15.16 141.135 14.952 140.666 14.536C140.197 14.1093 139.962 13.5707 139.962 12.92V12.52C139.962 11.8693 140.197 11.336 140.666 10.92C141.135 10.4933 141.727 10.28 142.442 10.28H147.722V9.48C147.722 9.05333 147.578 8.72267 147.29 8.488C147.002 8.24267 146.586 8.12 146.042 8.12H140.842V7.08H146.122C146.89 7.08 147.519 7.29333 148.01 7.72C148.511 8.136 148.762 8.66933 148.762 9.32V15H148.042L147.786 14.2H147.69C147.498 14.4667 147.215 14.696 146.842 14.888C146.469 15.0693 145.978 15.16 145.37 15.16H142.442ZM145.53 14.12C146.213 14.12 146.746 13.9707 147.13 13.672C147.525 13.3733 147.722 12.9627 147.722 12.44V11.32H142.442C142.037 11.32 141.695 11.4373 141.418 11.672C141.141 11.896 141.002 12.1947 141.002 12.568V12.872C141.002 13.2453 141.141 13.5493 141.418 13.784C141.695 14.008 142.037 14.12 142.442 14.12H145.53Z" fill="#CCCCCC"/>
<path d="M574.76 15V3.8H583.64C584.515 3.8 585.213 4.03467 585.736 4.504C586.259 4.96267 586.52 5.58133 586.52 6.36V8.6C586.52 9.37867 586.259 10.0027 585.736 10.472C585.213 10.9307 584.515 11.16 583.64 11.16H575.8V15H574.76ZM583.56 10.12C584.168 10.12 584.637 9.98667 584.968 9.72C585.309 9.44267 585.48 9.04267 585.48 8.52V6.44C585.48 5.91733 585.309 5.52267 584.968 5.256C584.637 4.97867 584.168 4.84 583.56 4.84H575.8V10.12H583.56ZM591.559 15C590.791 15 590.156 14.792 589.655 14.376C589.164 13.9493 588.919 13.4107 588.919 12.76V9.16C588.919 8.50933 589.164 7.976 589.655 7.56C590.156 7.13333 590.791 6.92 591.559 6.92H595.399C596.167 6.92 596.796 7.13333 597.287 7.56C597.788 7.976 598.039 8.50933 598.039 9.16V11.72H589.959V12.6C589.959 13.0267 590.103 13.3627 590.391 13.608C590.679 13.8427 591.095 13.96 591.639 13.96H597.639V15H591.559ZM589.959 10.68H596.999V9.32C596.999 8.89333 596.855 8.56267 596.567 8.328C596.279 8.08267 595.863 7.96 595.319 7.96H591.639C591.095 7.96 590.679 8.08267 590.391 8.328C590.103 8.56267 589.959 8.89333 589.959 9.32V10.68ZM599.874 15V13.96H605.746C606.29 13.96 606.701 13.848 606.978 13.624C607.256 13.3893 607.394 13.1013 607.394 12.76V12.6C607.394 12.2693 607.261 12.0027 606.994 11.8C606.728 11.5867 606.338 11.48 605.826 11.48H602.338V10.44H605.57C606.104 10.44 606.514 10.3387 606.802 10.136C607.09 9.92267 607.234 9.66667 607.234 9.368V9.208C607.234 8.87733 607.096 8.616 606.818 8.424C606.552 8.22133 606.162 8.12 605.65 8.12H600.386L600.082 7.8V7.08H605.714C606.472 7.08 607.085 7.272 607.554 7.656C608.034 8.04 608.274 8.53067 608.274 9.128V9.368C608.274 9.70933 608.152 10.0187 607.906 10.296C607.661 10.5627 607.368 10.744 607.026 10.84V10.92C607.389 11.0053 607.714 11.1973 608.002 11.496C608.29 11.784 608.434 12.136 608.434 12.552V13C608.434 13.352 608.333 13.6827 608.13 13.992C607.928 14.3013 607.629 14.5467 607.234 14.728C606.85 14.9093 606.402 15 605.89 15H599.874ZM618.294 7.08H619.238V7.64L614.902 15.336C614.593 15.88 614.31 16.312 614.054 16.632C613.798 16.9627 613.473 17.224 613.078 17.416C612.683 17.6187 612.187 17.72 611.59 17.72H610.774V16.68H611.59C612.454 16.68 613.169 16.2 613.734 15.24L614.038 14.712L609.638 7.64V7.08H610.614L614.63 13.56H614.71L618.294 7.08ZM619.238 15.16V14.12H620.006C621.041 14.12 621.617 13.608 621.734 12.584L622.358 7.08H629.718V15H628.678V8.12H623.302L622.774 12.744C622.689 13.5227 622.417 14.12 621.958 14.536C621.499 14.952 620.875 15.16 620.086 15.16H619.238ZM632.596 15V7.08H633.636V9.8H638.372C639.13 9.8 639.743 10.008 640.212 10.424C640.682 10.8293 640.916 11.3573 640.916 12.008V12.792C640.916 13.4427 640.682 13.976 640.212 14.392C639.743 14.7973 639.13 15 638.372 15H632.596ZM638.292 13.96C638.815 13.96 639.21 13.848 639.476 13.624C639.743 13.3893 639.876 13.0747 639.876 12.68V12.12C639.876 11.7253 639.743 11.416 639.476 11.192C639.21 10.9573 638.815 10.84 638.292 10.84H633.636V13.96H638.292ZM646.362 15H645.322V8.12H641.322V7.08H650.362V7.8L650.042 8.12H646.362V15ZM654.051 15.16C653.337 15.16 652.745 14.952 652.275 14.536C651.806 14.1093 651.571 13.5707 651.571 12.92V12.52C651.571 11.8693 651.806 11.336 652.275 10.92C652.745 10.4933 653.337 10.28 654.051 10.28H659.331V9.48C659.331 9.05333 659.187 8.72267 658.899 8.488C658.611 8.24267 658.195 8.12 657.651 8.12H652.451V7.08H657.731C658.499 7.08 659.129 7.29333 659.619 7.72C660.121 8.136 660.371 8.66933 660.371 9.32V15H659.651L659.395 14.2H659.299C659.107 14.4667 658.825 14.696 658.451 14.888C658.078 15.0693 657.587 15.16 656.979 15.16H654.051ZM657.139 14.12C657.822 14.12 658.355 13.9707 658.739 13.672C659.134 13.3733 659.331 12.9627 659.331 12.44V11.32H654.051C653.646 11.32 653.305 11.4373 653.027 11.672C652.75 11.896 652.611 12.1947 652.611 12.568V12.872C652.611 13.2453 652.75 13.5493 653.027 13.784C653.305 14.008 653.646 14.12 654.051 14.12H657.139ZM666.94 15H665.9V8.12H661.9V7.08H670.94V7.8L670.62 8.12H666.94V15Z" fill="#CCCCCC"/>
</svg>
