<svg width="361" height="366" viewBox="0 0 361 366" fill="none" xmlns="http://www.w3.org/2000/svg">
<g filter="url(#filter0_d_2478_9855)">
<path d="M51.7661 268.5C38.162 244.937 31 218.208 31 191C31 163.792 38.162 137.063 51.7661 113.5C65.3702 89.937 84.937 70.3702 108.5 56.7661C132.063 43.162 158.792 36 186 36" stroke="#EE5B5B" stroke-width="40"/>
</g>
<path d="M137.628 180.4C134.854 180.4 132.774 179.813 131.388 178.64C130.028 177.467 129.348 175.787 129.348 173.6V168.24C129.348 167.04 129.668 165.92 130.308 164.88C130.974 163.84 132.081 162.747 133.628 161.6L146.748 152H153.228V155.84L143.708 162.28V162.48H146.468H152.948C155.721 162.48 157.788 163.067 159.148 164.24C160.534 165.387 161.228 167.067 161.228 169.28V173.6C161.228 175.787 160.534 177.467 159.148 178.64C157.788 179.813 155.721 180.4 152.948 180.4H137.628ZM151.668 173.8C152.254 173.8 152.681 173.68 152.948 173.44C153.214 173.2 153.348 172.84 153.348 172.36V170.24C153.348 169.76 153.214 169.4 152.948 169.16C152.681 168.92 152.254 168.8 151.668 168.8H138.868C138.281 168.8 137.854 168.92 137.588 169.16C137.348 169.4 137.228 169.76 137.228 170.24V172.36C137.228 172.84 137.348 173.2 137.588 173.44C137.854 173.68 138.281 173.8 138.868 173.8H151.668ZM164.94 180V173.12H185.34C185.927 173.12 186.34 173.013 186.58 172.8C186.847 172.56 186.98 172.2 186.98 171.72V170.24C186.98 169.76 186.847 169.4 186.58 169.16C186.34 168.92 185.927 168.8 185.34 168.8H165.34V152H193.98V156.6L191.7 158.88H173.18V162.32H186.86C189.633 162.32 191.7 162.907 193.06 164.08C194.447 165.253 195.14 166.933 195.14 169.12V173.2C195.14 175.387 194.447 177.067 193.06 178.24C191.7 179.413 189.633 180 186.86 180H164.94ZM203.834 165.2C202.261 165.2 201.021 164.853 200.114 164.16C199.208 163.44 198.754 162.467 198.754 161.24V155.56C198.754 154.333 199.208 153.373 200.114 152.68C201.021 151.96 202.261 151.6 203.834 151.6H211.714C213.288 151.6 214.528 151.96 215.434 152.68C216.341 153.373 216.794 154.333 216.794 155.56V161.24C216.794 162.467 216.341 163.44 215.434 164.16C214.528 164.853 213.288 165.2 211.714 165.2H203.834ZM210.954 180H206.034V177.08L230.754 152H235.674V154.92L210.954 180ZM210.074 160.72C210.528 160.72 210.848 160.653 211.034 160.52C211.248 160.36 211.354 160.133 211.354 159.84V156.96C211.354 156.667 211.248 156.453 211.034 156.32C210.848 156.16 210.528 156.08 210.074 156.08H205.474C205.021 156.08 204.688 156.16 204.474 156.32C204.288 156.453 204.194 156.667 204.194 156.96V159.84C204.194 160.133 204.288 160.36 204.474 160.52C204.688 160.653 205.021 160.72 205.474 160.72H210.074ZM229.994 180.4C228.421 180.4 227.181 180.053 226.274 179.36C225.368 178.64 224.914 177.667 224.914 176.44V170.76C224.914 169.533 225.368 168.573 226.274 167.88C227.181 167.16 228.421 166.8 229.994 166.8H237.874C239.448 166.8 240.688 167.16 241.594 167.88C242.501 168.573 242.954 169.533 242.954 170.76V176.44C242.954 177.667 242.501 178.64 241.594 179.36C240.688 180.053 239.448 180.4 237.874 180.4H229.994ZM236.234 175.92C236.688 175.92 237.008 175.853 237.194 175.72C237.408 175.56 237.514 175.333 237.514 175.04V172.16C237.514 171.867 237.408 171.653 237.194 171.52C237.008 171.36 236.688 171.28 236.234 171.28H231.634C231.181 171.28 230.848 171.36 230.634 171.52C230.448 171.653 230.354 171.867 230.354 172.16V175.04C230.354 175.333 230.448 175.56 230.634 175.72C230.848 175.853 231.181 175.92 231.634 175.92H236.234Z" fill="#212121"/>
<path d="M104.346 215V203.8H112.986C113.861 203.8 114.559 204.035 115.082 204.504C115.605 204.963 115.866 205.581 115.866 206.36V207C115.866 207.651 115.733 208.141 115.466 208.472C115.199 208.792 114.869 209.005 114.474 209.112V209.192C114.879 209.245 115.237 209.459 115.546 209.832C115.866 210.195 116.026 210.717 116.026 211.4V212.44C116.026 213.219 115.765 213.843 115.242 214.312C114.719 214.771 114.021 215 113.146 215H104.346ZM112.906 208.68C113.514 208.68 113.983 208.547 114.314 208.28C114.655 208.003 114.826 207.603 114.826 207.08V206.44C114.826 205.917 114.655 205.523 114.314 205.256C113.983 204.979 113.514 204.84 112.906 204.84H105.386V208.68H112.906ZM113.066 213.96C113.674 213.96 114.143 213.827 114.474 213.56C114.815 213.283 114.986 212.883 114.986 212.36V211.32C114.986 210.797 114.815 210.403 114.474 210.136C114.143 209.859 113.674 209.72 113.066 209.72H105.386V213.96H113.066ZM118.745 217.72V207.08H119.465L119.721 207.88H119.817C120.009 207.613 120.291 207.389 120.665 207.208C121.038 207.016 121.529 206.92 122.137 206.92H125.145C125.913 206.92 126.542 207.133 127.033 207.56C127.534 207.976 127.785 208.509 127.785 209.16V212.76C127.785 213.411 127.534 213.949 127.033 214.376C126.542 214.792 125.913 215 125.145 215H119.785V217.72H118.745ZM125.065 213.96C125.609 213.96 126.025 213.843 126.313 213.608C126.601 213.363 126.745 213.027 126.745 212.6V209.32C126.745 208.893 126.601 208.563 126.313 208.328C126.025 208.083 125.609 207.96 125.065 207.96H121.977C121.294 207.96 120.755 208.109 120.361 208.408C119.977 208.707 119.785 209.117 119.785 209.64V213.96H125.065ZM132.832 215C132.064 215 131.43 214.792 130.928 214.376C130.438 213.949 130.192 213.411 130.192 212.76V209.16C130.192 208.509 130.438 207.976 130.928 207.56C131.43 207.133 132.064 206.92 132.832 206.92H136.672C137.44 206.92 138.07 207.133 138.56 207.56C139.062 207.976 139.312 208.509 139.312 209.16V211.72H131.232V212.6C131.232 213.027 131.376 213.363 131.664 213.608C131.952 213.843 132.368 213.96 132.912 213.96H138.912V215H132.832ZM131.232 210.68H138.272V209.32C138.272 208.893 138.128 208.563 137.84 208.328C137.552 208.083 137.136 207.96 136.592 207.96H132.912C132.368 207.96 131.952 208.083 131.664 208.328C131.376 208.563 131.232 208.893 131.232 209.32V210.68ZM142.588 215H141.548V214.44L142.86 207.08H143.98L147.66 212.568H147.756L151.436 207.08H152.556L153.868 214.44V215H152.828L151.756 208.68H151.66L148.172 213.88H147.244L143.756 208.68H143.66L142.588 215ZM158.754 215C157.986 215 157.351 214.792 156.85 214.376C156.359 213.949 156.114 213.411 156.114 212.76V209.16C156.114 208.509 156.359 207.976 156.85 207.56C157.351 207.133 157.986 206.92 158.754 206.92H162.594C163.362 206.92 163.991 207.133 164.482 207.56C164.983 207.976 165.234 208.509 165.234 209.16V211.72H157.154V212.6C157.154 213.027 157.298 213.363 157.586 213.608C157.874 213.843 158.29 213.96 158.834 213.96H164.834V215H158.754ZM157.154 210.68H164.194V209.32C164.194 208.893 164.05 208.563 163.762 208.328C163.474 208.083 163.058 207.96 162.514 207.96H158.834C158.29 207.96 157.874 208.083 157.586 208.328C157.298 208.563 157.154 208.893 157.154 209.32V210.68ZM168.91 215H167.87V207.08H168.91V210.44H175.47V207.08H176.51V215H175.47V211.48H168.91V215ZM180.425 215H179.385V207.08H180.425V213.528H180.521L187.305 207.08H188.345V215H187.305V208.552H187.193L180.425 215ZM196.675 215H195.635V207.08H204.275V215H203.235V208.12H196.675V215ZM207.151 217.72V207.08H207.871L208.127 207.88H208.223C208.415 207.613 208.698 207.389 209.071 207.208C209.444 207.016 209.935 206.92 210.543 206.92H213.551C214.319 206.92 214.948 207.133 215.439 207.56C215.94 207.976 216.191 208.509 216.191 209.16V212.76C216.191 213.411 215.94 213.949 215.439 214.376C214.948 214.792 214.319 215 213.551 215H208.191V217.72H207.151ZM213.471 213.96C214.015 213.96 214.431 213.843 214.719 213.608C215.007 213.363 215.151 213.027 215.151 212.6V209.32C215.151 208.893 215.007 208.563 214.719 208.328C214.431 208.083 214.015 207.96 213.471 207.96H210.383C209.7 207.96 209.162 208.109 208.767 208.408C208.383 208.707 208.191 209.117 208.191 209.64V213.96H213.471ZM221.238 215.16C220.47 215.16 219.836 214.952 219.334 214.536C218.844 214.109 218.598 213.571 218.598 212.92V209.16C218.598 208.509 218.844 207.976 219.334 207.56C219.836 207.133 220.47 206.92 221.238 206.92H225.238C226.006 206.92 226.636 207.133 227.126 207.56C227.628 207.976 227.878 208.509 227.878 209.16V212.92C227.878 213.571 227.628 214.109 227.126 214.536C226.636 214.952 226.006 215.16 225.238 215.16H221.238ZM225.158 214.12C225.702 214.12 226.118 214.003 226.406 213.768C226.694 213.523 226.838 213.187 226.838 212.76V209.32C226.838 208.893 226.694 208.563 226.406 208.328C226.118 208.083 225.702 207.96 225.158 207.96H221.318C220.774 207.96 220.358 208.083 220.07 208.328C219.782 208.563 219.638 208.893 219.638 209.32V212.76C219.638 213.187 219.782 213.523 220.07 213.768C220.358 214.003 220.774 214.12 221.318 214.12H225.158ZM244.206 215H230.526V207.08H231.566V213.96H236.846V207.08H237.886V213.96H243.166V207.08H244.206V215ZM245.808 215.16V214.12H246.576C247.611 214.12 248.187 213.608 248.304 212.584L248.928 207.08H256.288V215H255.248V208.12H249.872L249.344 212.744C249.259 213.523 248.987 214.12 248.528 214.536C248.07 214.952 247.446 215.16 246.656 215.16H245.808ZM261.567 215.16C260.799 215.16 260.164 214.952 259.663 214.536C259.172 214.109 258.927 213.571 258.927 212.92V209.16C258.927 208.509 259.172 207.976 259.663 207.56C260.164 207.133 260.799 206.92 261.567 206.92H265.567C266.335 206.92 266.964 207.133 267.455 207.56C267.956 207.976 268.207 208.509 268.207 209.16V212.92C268.207 213.571 267.956 214.109 267.455 214.536C266.964 214.952 266.335 215.16 265.567 215.16H261.567ZM265.487 214.12C266.031 214.12 266.447 214.003 266.735 213.768C267.023 213.523 267.167 213.187 267.167 212.76V209.32C267.167 208.893 267.023 208.563 266.735 208.328C266.447 208.083 266.031 207.96 265.487 207.96H261.647C261.103 207.96 260.687 208.083 260.399 208.328C260.111 208.563 259.967 208.893 259.967 209.32V212.76C259.967 213.187 260.111 213.523 260.399 213.768C260.687 214.003 261.103 214.12 261.647 214.12H265.487Z" fill="#CCCCCC"/>
<path d="M186 36C213.16 36 239.843 43.1365 263.376 56.6948C286.91 70.253 306.468 89.757 320.091 113.253C333.714 136.749 340.924 163.412 340.999 190.572C341.074 217.732 334.012 244.434 320.518 268.005C307.025 291.576 287.575 311.188 264.117 324.876C240.659 338.564 214.015 345.848 186.856 345.998C159.697 346.148 132.975 339.159 109.366 325.73C85.7584 312.302 66.0931 292.907 52.3403 269.486" stroke="#EDEDED" stroke-width="40" stroke-dasharray="100 100"/>
<defs>
<filter id="filter0_d_2478_9855" x="0" y="0" width="215" height="302.5" filterUnits="userSpaceOnUse" color-interpolation-filters="sRGB">
<feFlood flood-opacity="0" result="BackgroundImageFix"/>
<feColorMatrix in="SourceAlpha" type="matrix" values="0 0 0 0 0 0 0 0 0 0 0 0 0 0 0 0 0 0 127 0" result="hardAlpha"/>
<feOffset dx="9" dy="4"/>
<feGaussianBlur stdDeviation="10"/>
<feComposite in2="hardAlpha" operator="out"/>
<feColorMatrix type="matrix" values="0 0 0 0 0.649038 0 0 0 0 0.134176 0 0 0 0 0.134176 0 0 0 0.25 0"/>
<feBlend mode="normal" in2="BackgroundImageFix" result="effect1_dropShadow_2478_9855"/>
<feBlend mode="normal" in="SourceGraphic" in2="effect1_dropShadow_2478_9855" result="shape"/>
</filter>
</defs>
</svg>
