<svg width="25" height="24" viewBox="0 0 25 24" fill="none" xmlns="http://www.w3.org/2000/svg">
<path d="M13.5 6C13.5 3.79086 11.7091 2 9.5 2C7.29086 2 5.5 3.79086 5.5 6" stroke="#505050" stroke-width="1.5" stroke-linecap="round" stroke-linejoin="round"/>
<path d="M10.8182 8.92095V6.36364C10.8182 5.61052 10.2077 5 9.45455 5C8.70143 5 8.09091 5.61052 8.09091 6.36364V14.2556L6.61791 12.8013C5.97161 12.1632 4.90702 12.2214 4.33605 12.9261C3.89916 13.4653 3.88709 14.228 4.30671 14.7804L7.03761 18.3753C7.65737 19.1912 7.96726 19.5991 8.34017 19.9162C8.9091 20.3999 9.59086 20.7364 10.3242 20.8956C10.8048 20.9999 11.3213 20.9999 12.3542 20.9999C14.3238 20.9999 15.3086 20.9999 16.0926 20.7028C17.2915 20.2484 18.2388 19.3131 18.699 18.1294C19 17.3554 19 16.3831 19 14.4385V12.2263C19 11.3516 18.3574 10.605 17.4807 10.4612L17.1694 10.4101C16.7 10.3331 16.2727 10.6894 16.2727 11.1578M10.8182 8.92095L11.3434 8.6625C11.5958 8.53826 11.8782 8.45807 12.1527 8.52283C12.9516 8.71133 13.5455 9.41894 13.5455 10.2631M10.8182 8.92095V11.1578M13.5455 10.2631V11.1578M13.5455 10.2631C13.5455 9.76891 13.9525 9.36832 14.4545 9.36832C15.4587 9.36832 16.2727 10.1695 16.2727 11.1578M16.2727 11.1578V12.0525" stroke="#505050" stroke-width="1.5" stroke-linecap="round" stroke-linejoin="round"/>
</svg>
