<svg width="25" height="24" viewBox="0 0 25 24" fill="none" xmlns="http://www.w3.org/2000/svg">
<path d="M2.5 15C2.64277 15.4274 2.81023 15.8431 3.00062 16.2452M4.62547 18.7463C4.94158 19.1137 5.281 19.4596 5.64137 19.7814M9.5 22C9.05224 21.8557 8.61701 21.6824 8.19641 21.4822" stroke="white" stroke-width="1.5" stroke-linecap="round" stroke-linejoin="round"/>
<path d="M12.5 13.5C13.3284 13.5 14 12.8284 14 12C14 11.1716 13.3284 10.5 12.5 10.5C11.6716 10.5 11 11.1716 11 12M12.5 13.5C11.6716 13.5 11 12.8284 11 12M12.5 13.5V16M11 12H6.5" stroke="white" stroke-width="1.5" stroke-linecap="round"/>
<path d="M12.5 22C18.0228 22 22.5 17.5228 22.5 12C22.5 6.47715 18.0228 2 12.5 2C6.97715 2 2.5 6.47715 2.5 12" stroke="white" stroke-width="1.5" stroke-linecap="round"/>
</svg>
